<svg id="Capa_1" enable-background="new 0 0 512 512" height="512" viewBox="0 0 512 512" width="512" xmlns="http://www.w3.org/2000/svg"><g><g><path d="m150.829 366.593s-62.53 14.919-62.53 105.34h82.282v-57.31z" fill="#475066"/><path d="m358.884 365.348s64.817 16.163 64.817 106.585h-82.282v-105.34z" fill="#475066"/><path d="m47.582 215.918c0-114.922 93.496-208.418 208.418-208.418s208.419 93.496 208.419 208.418z" fill="#d3918a"/><path d="m142.033 202.762c0-73.03 34.721-149.99 90.138-193.892-103.74 11.863-184.589 100.184-184.589 207.048h94.892c-.282-4.35-.441-8.734-.441-13.156z" fill="#cb827c"/><circle cx="423.701" cy="217.019" fill="#ffbe9c" r="49.274"/><path d="m381.347 109.543c-4.483-5.277-11.974-7.008-18.27-4.126-6.547 2.997-14.059 4.703-22.051 4.703-12.675 0-24.153-4.283-32.48-11.213-5.815-4.839-14.252-4.839-20.067 0-8.327 6.93-19.804 11.213-32.48 11.213s-24.153-4.283-32.48-11.213c-5.815-4.839-14.252-4.839-20.067 0-8.327 6.93-19.804 11.213-32.48 11.213-7.991 0-15.501-1.706-22.048-4.702-6.312-2.889-13.81-1.132-18.302 4.159-24.338 28.668-39.022 65.789-39.022 106.341 0 90.761 72.674 163.876 163.434 164.398 91.239.525 165.366-73.28 165.366-164.397 0-40.569-14.696-77.705-39.053-106.376z" fill="#ffd3bc"/><path d="m249.214 380.17c-63.724-33.54-107.182-100.394-107.182-177.407 0-31.492 6.464-63.714 18.251-93.704-4.013-.8-7.829-2.025-11.358-3.64-6.312-2.889-13.81-1.132-18.302 4.159-14.51 17.09-25.585 37.186-32.167 59.22-3.278-.687-6.675-1.053-10.157-1.053-27.214 0-49.274 22.061-49.274 49.274 0 27.214 22.061 49.274 49.274 49.274 3.687 0 7.274-.418 10.73-1.186 20.148 64.842 79.16 112.209 150.185 115.063z" fill="#ffbe9c"/><ellipse cx="163.73" cy="260.885" fill="#fd8b9b" rx="34.046" ry="27.112"/><ellipse cx="348.27" cy="260.885" fill="#fd8b9b" rx="34.046" ry="27.112"/><ellipse cx="256" cy="240.053" fill="#303646" rx="18.072" ry="20.223"/><path d="m341.419 323.987v-10.751c0-14.19-14.098-24.067-27.433-19.216-7.928 2.884-18.339 6.661-32.071 11.616-8.375 3.037-17.134 4.611-25.916 4.71-9.42.121-18.851-1.453-27.853-4.71-12.355-4.479-22.27-8.076-30.153-10.937-13.333-4.839-27.414 5.039-27.414 19.222v10.489 54.677h170.839v-55.1z" fill="#ecebfd"/><path d="m256 349.963c-9.42.121-18.851-1.453-27.853-4.71l-56.52-20.505c-10.113-3.669-20.799 3.821-20.799 14.58v94.618c0 13.848 8.669 26.215 21.687 30.938l55.632 20.183c9.002 3.257 18.433 4.831 27.853 4.71l51.623-86.284z" fill="#7ce0fd"/><path d="m338.448 324.747-56.532 20.507c-8.375 3.037-17.134 4.611-25.916 4.71v139.814c8.782-.099 17.541-1.673 25.916-4.71l55.641-20.184c13.019-4.723 21.689-17.09 21.689-30.939v-94.618c0-10.758-10.686-18.249-20.798-14.58z" fill="#2ecdf9"/><path d="m357.795 439.367h44.344c17.986 0 32.566 14.58 32.566 32.566 0 17.986-14.581 32.566-32.566 32.566h-44.344c-17.986 0-32.566-14.581-32.566-32.566 0-17.985 14.58-32.566 32.566-32.566z" fill="#ffd3bc"/><path d="m219.489 302.497c-8.438-3.06-15.546-5.639-21.495-7.798-13.333-4.838-27.414 5.039-27.414 19.222v10.49 54.677h27.649c1.681-33.841 8.188-58.798 21.26-76.591z" fill="#d1d1fd"/><path d="m197.776 398.211c0-24.369 1.957-44.756 6.347-61.674l-32.496-11.789c-10.113-3.669-20.799 3.822-20.799 14.58v94.619c0 13.848 8.669 26.215 21.687 30.938l55.632 20.183c.846.306 1.7.583 2.553.859-20.499-23.444-32.924-54.127-32.924-87.716z" fill="#2ecdf9"/><path d="m154.205 439.367h-44.345c-17.986 0-32.566 14.58-32.566 32.566 0 17.986 14.58 32.566 32.566 32.566h44.344c17.986 0 32.566-14.581 32.566-32.566.001-17.985-14.579-32.566-32.565-32.566z" fill="#ffd3bc"/><g fill="#ffbe9c"><path d="m163.215 482.816c-28.003 0-51.868-17.707-61.017-42.534-14.287 3.447-24.904 16.305-24.904 31.651 0 17.986 14.58 32.566 32.566 32.566h44.344c15.675 0 28.759-11.075 31.864-25.826-7.11 2.672-14.809 4.143-22.853 4.143z"/><path d="m411.149 482.816c-28.003 0-51.868-17.707-61.017-42.534-14.287 3.447-24.904 16.305-24.904 31.651 0 17.986 14.58 32.566 32.566 32.566h44.344c15.675 0 28.759-11.075 31.864-25.826-7.11 2.672-14.808 4.143-22.853 4.143z"/></g></g><g><path d="m169.421 235.667c4.142 0 7.5-3.358 7.5-7.5v-13.206c0-4.142-3.358-7.5-7.5-7.5s-7.5 3.358-7.5 7.5v13.206c0 4.143 3.358 7.5 7.5 7.5z"/><path d="m256 267.776c14.101 0 25.573-12.437 25.573-27.724 0-15.286-11.472-27.723-25.573-27.723s-25.572 12.437-25.572 27.723c-.001 15.288 11.471 27.724 25.572 27.724zm0-40.446c5.83 0 10.573 5.708 10.573 12.723 0 7.016-4.743 12.724-10.573 12.724s-10.572-5.708-10.572-12.724c-.001-7.015 4.742-12.723 10.572-12.723z"/><path d="m342.579 235.667c4.142 0 7.5-3.358 7.5-7.5v-13.206c0-4.142-3.358-7.5-7.5-7.5s-7.5 3.358-7.5 7.5v13.206c0 4.143 3.358 7.5 7.5 7.5z"/><path d="m88.299 273.793c1.874 0 3.754-.107 5.631-.296 9.795 27.775 26.653 52.776 49.398 72.473v15.223c-5.552 2.144-14.349 6.357-23.646 14.027-13.281 10.957-30.193 31.372-36.402 66.769-8.265 7.345-13.486 18.044-13.486 29.945 0 22.093 17.974 40.066 40.066 40.066h44.344c19.179 0 35.247-13.549 39.153-31.576l32.238 11.695c19.034 6.889 39.895 6.883 58.878-.002l34.031-12.344c3.655 18.352 19.881 32.227 39.291 32.227h44.344c22.093 0 40.066-17.974 40.066-40.066 0-11.914-5.232-22.623-13.513-29.969-2.534-14.432-7.01-27.53-13.374-38.933-2.019-3.617-6.587-4.913-10.205-2.894-3.617 2.019-4.913 6.587-2.894 10.205 3.807 6.821 6.857 14.378 9.121 22.58-2.504-.588-5.991-1.055-9.201-1.055h-35.394v-54.803c5.194 2.268 11.967 5.991 18.504 11.861 3.083 2.767 7.824 2.512 10.591-.57 2.768-3.082 2.512-7.824-.57-10.591-10.638-9.552-21.867-14.476-28.526-16.774v-13.625c23.697-19.971 41.209-45.469 51.281-73.873 1.892.191 3.787.3 5.675.3 31.306 0 56.774-25.469 56.774-56.774 0-12.551-4.101-24.158-11.023-33.567-7.608-50.196-32.902-96.302-71.393-130.004-39.362-34.467-89.813-53.448-142.058-53.448-43.959 0-86.295 13.197-122.431 38.166-3.408 2.354-4.262 7.026-1.907 10.434s7.025 4.262 10.434 1.907c33.618-23.229 73.006-35.507 113.904-35.507 48.608 0 95.55 17.662 132.178 49.733 31.03 27.169 52.853 62.989 62.739 102.434-9.757-5.34-20.979-7.683-32.163-6.707-6.954-20.46-17.634-39.226-31.691-55.774-6.488-7.636-17.597-10.445-27.108-6.09-14.657 6.709-33.901 5.123-46.611-5.455-8.594-7.152-21.068-7.152-29.663 0-15.199 12.649-40.168 12.647-55.364 0-8.598-7.156-21.086-7.139-29.663 0-12.725 10.59-31.975 12.154-46.608 5.456-9.304-4.259-20.465-1.741-27.141 6.125-14.035 16.532-24.705 35.275-31.66 55.737-11.317-.988-22.718 1.541-32.151 6.701 9.416-37.447 29.683-71.838 58.314-98.432 3.035-2.819 3.209-7.564.391-10.599s-7.564-3.21-10.6-.391c-35.774 33.231-59.387 77.812-66.652 125.715-6.922 9.409-11.022 21.016-11.022 33.566-.001 31.306 25.468 56.774 56.774 56.774zm334.759-98.532c23.383-.346 42.418 18.567 42.418 41.758 0 23.731-19.734 42.447-42.955 41.757 3.449-13.466 5.38-28.254 5.38-42.857-.001-13.194-1.595-27.265-4.843-40.658zm-279.73 202.242v54.364h-33.468c-3.122 0-6.667.459-9.212 1.058 9.446-34.368 30.448-49.385 42.68-55.422zm10.877 119.497h-44.344c-13.822 0-25.066-11.245-25.066-25.066 0-13.809 11.248-25.066 25.066-25.066h44.344c13.191 0 24.256 10.322 25.019 23.598 0 .006.002.011.002.017.83 14.453-10.701 26.517-25.021 26.517zm94.295-15.011c-6.058-.553-12.019-1.882-17.795-3.972l-37.118-13.466c-3.232-17.369-17.675-30.666-35.259-32.473 0-11.272 0-81.699 0-92.75 0-5.536 5.528-9.413 10.734-7.532.002.001.005.001.007.002l56.526 20.508c7.213 2.611 15.163 4.343 22.905 4.921zm-17.801-143.789c-12.577-4.563-43.827-15.9-52.618-19.09v-5.189c0-8.99 8.901-15.242 17.355-12.172 10.733 3.894 19.519 7.082 30.16 10.939 19.724 7.136 40.55 6.645 58.866.002 13.74-4.958 24.157-8.736 32.09-11.623 8.457-3.075 17.368 3.172 17.368 12.168v5.175l-54.561 19.792c-15.499 5.62-32.72 5.767-48.66-.002zm87.862 125.596-39.203 14.22c-5.152 1.869-10.46 3.129-15.858 3.771v-124.727c7.209-.704 14.482-2.402 20.973-4.756l56.53-20.505c.012-.004.025-.007.037-.011 5.215-1.866 10.706 2.011 10.706 7.54v92.998c-16.557 2.516-29.816 15.204-33.185 31.47zm83.578-16.929c13.735 0 25.066 11.18 25.066 25.066 0 13.822-11.245 25.066-25.066 25.066h-44.344c-13.822 0-25.066-11.245-25.066-25.066 0-13.819 11.365-25.066 25.066-25.066zm-265.798-332.436c2.349-2.766 6.24-3.667 9.463-2.194 19.763 9.047 45.186 6.799 62.447-7.565 3.048-2.536 7.453-2.513 10.471 0 20.751 17.27 53.796 17.277 74.555 0 3.025-2.519 7.432-2.531 10.472 0 17.061 14.199 42.425 16.732 62.451 7.564 3.216-1.473 7.096-.587 9.432 2.162 24.882 29.406 37.269 65.582 37.269 101.52 0 42.972-17.359 83.691-48.449 113.38-3.072-6.357-8.95-10.871-15.532-12.399v-3.664c0-19.372-19.288-32.89-37.497-26.264-7.923 2.883-18.329 6.658-32.063 11.613-15.436 5.599-32.653 5.791-48.655 0-9.453-3.427-18.657-6.765-30.15-10.936-18.201-6.603-37.472 6.903-37.472 26.272v2.604c-7.266 1.036-13.576 5.626-16.919 11.694-30.116-29.44-47.062-69.8-47.062-112.301-.002-37.175 13.256-73.244 37.239-101.486zm-47.399 60.83c-3.276 13.507-4.842 27.617-4.842 40.657 0 14.631 1.944 29.511 5.342 42.859-23.353.657-42.918-18.176-42.918-41.758 0-22.903 18.738-42.108 42.418-41.758z"/></g></g></svg>