<?xml version="1.0" encoding="UTF-8"?>
<svg xmlns="http://www.w3.org/2000/svg" xmlns:xlink="http://www.w3.org/1999/xlink" version="1.1" id="Capa_1" x="0px" y="0px" viewBox="0 0 512 512" style="enable-background:new 0 0 512 512;" xml:space="preserve" width="512" height="512">
<g>
	<g>
		<g>
			<path style="fill:#9CDA82;" d="M494.278,292.567c-43.51-30.07-162.8,72.36-197.47,146.85&#10;&#9;&#9;&#9;&#9;c-207.216-32.558-265.973-271.254-100.6-408.48c4.27-0.47,8.36-2.23,11.73-5.13c28.29-24.41,67.83-24.41,96.12,0&#10;&#9;&#9;&#9;&#9;c5.48,4.72,12.89,6.44,19.83,4.45c38.73-11.08,81.22,16.5,87.32,55.97c1.35,8.74,8.11,15.53,16.81,17.08&#10;&#9;&#9;&#9;&#9;c31.75,5.65,56.4,33.65,56.3,67.41c0,6.3-0.86,12.42-2.47,18.25c-1.86,6.71-0.34,13.97,4.24,19.22&#10;&#9;&#9;&#9;&#9;C507.508,232.678,510.238,265.857,494.278,292.567z"/>
			<path style="fill:#7DCE5C;" d="M292.64,494.391c-26.96,15.88-60.33,13.05-85.02-8.48c-5.33-4.65-12.71-6.12-19.51-4.17&#10;&#9;&#9;&#9;&#9;c-38.73,11.08-81.22-16.5-87.32-55.97c-1.35-8.74-8.1-15.53-16.81-17.08c-31.75-5.65-56.4-33.65-56.3-67.41&#10;&#9;&#9;&#9;&#9;c0-6.3,0.86-12.42,2.47-18.25c1.9-6.86,0.13-14.16-4.53-19.55c-24.16-27.93-24.16-67.03,0-94.96c4.66-5.39,6.43-12.69,4.53-19.55&#10;&#9;&#9;&#9;&#9;c-1.61-5.83-2.47-11.95-2.47-18.25c-0.1-33.76,24.55-61.76,56.3-67.41c8.71-1.55,15.46-8.34,16.81-17.08&#10;&#9;&#9;&#9;&#9;c6.1-39.46,48.59-67.05,87.32-55.97c2.68,0.77,5.42,0.98,8.1,0.68c-122.09,120.77-67.21,360.94,100.6,408.48&#10;&#9;&#9;&#9;&#9;C286.46,461.661,283.65,481.401,292.64,494.391z"/>
		</g>
		<g>
			<path style="fill:#FFF8E6;" d="M429.5,256c0,91.68-71.12,166.76-161.2,173.07C138.563,390.575,84.848,253.489,139.94,127.04&#10;&#9;&#9;&#9;&#9;C170.68,99.35,211.37,82.5,256,82.5C351.82,82.5,429.5,160.18,429.5,256z"/>
			<path style="fill:#FFEAB7;" d="M268.33,429.08c-87.64,6.34-167.6-54.55-183.19-142.95C74.36,225,97.01,165.71,139.95,127&#10;&#9;&#9;&#9;&#9;C107.21,240.65,157.84,379.55,268.33,429.08z"/>
		</g>
		<path style="fill:#9CDA82;" d="M342.651,236.943l-72.46,72.46c-19.091,19.091-50.044,19.091-69.135,0l-31.706-31.706&#10;&#9;&#9;&#9;c-11.133-11.133-11.133-29.182,0-40.315l0.016-0.016c11.133-11.133,29.182-11.133,40.315,0l20.197,20.197&#10;&#9;&#9;&#9;c3.182,3.182,8.341,3.182,11.523,0l60.936-60.936c11.133-11.133,29.182-11.133,40.315,0l0,0&#10;&#9;&#9;&#9;C353.783,207.761,353.783,225.81,342.651,236.943z"/>
		<g>
			<path style="fill:#FFF1CF;" d="M494.28,292.57l-125.3,125.41c-31.861,4.46-54.914-20.083-54.914-46.343&#10;&#9;&#9;&#9;&#9;c0-8.07,11.61-24.804,20.815-35.397v-0.01c4.37-3.04,7.52-7.75,8.55-13.21C355.52,259.23,428.93,249.06,494.28,292.57z"/>
			<path style="fill:#FCE3A0;" d="M368.98,417.98l-76.34,76.41c-40.02-50.81-32.28-146.94,32.89-154.59&#10;&#9;&#9;&#9;&#9;c3.45-0.4,6.64-1.66,9.35-3.57c-2.71,7.12-4.2,14.84-4.2,22.91C330.68,385.4,346.41,407.98,368.98,417.98z"/>
		</g>
	</g>
	<g>
		<path style="fill:none;stroke:#000000;stroke-width:15;stroke-linecap:round;stroke-linejoin:round;stroke-miterlimit:10;" d="&#10;&#9;&#9;&#9;M494.285,292.566c15.952-26.707,13.222-59.89-8.191-84.38c-4.587-5.246-6.1-12.501-4.245-19.218&#10;&#9;&#9;&#9;c1.61-5.828,2.47-11.949,2.47-18.245c0.099-33.764-24.55-61.759-56.299-67.416c-8.704-1.551-15.456-8.34-16.807-17.078&#10;&#9;&#9;&#9;c-6.103-39.465-48.596-67.051-87.318-55.966c-6.948,1.989-14.359,0.27-19.83-4.451c-28.292-24.415-67.838-24.415-96.129,0&#10;&#9;&#9;&#9;c-5.471,4.721-12.882,6.44-19.83,4.451c-38.727-11.086-81.213,16.502-87.317,55.965c-1.352,8.738-8.103,15.527-16.808,17.078&#10;&#9;&#9;&#9;c-31.75,5.657-56.398,33.652-56.299,67.416c0,6.296,0.86,12.418,2.47,18.246c1.897,6.866,0.128,14.159-4.532,19.547&#10;&#9;&#9;&#9;c-24.16,27.938-24.16,67.03,0,94.969c4.659,5.388,6.428,12.681,4.532,19.547c-1.61,5.828-2.47,11.95-2.47,18.246&#10;&#9;&#9;&#9;c-0.099,33.764,24.55,61.759,56.299,67.416c8.704,1.551,15.456,8.34,16.807,17.078c6.103,39.466,48.597,67.052,87.32,55.966&#10;&#9;&#9;&#9;c6.804-1.948,14.178-0.475,19.512,4.177c24.686,21.527,58.057,24.354,85.024,8.48"/>
		<path style="fill:none;stroke:#000000;stroke-width:15;stroke-linecap:round;stroke-linejoin:round;stroke-miterlimit:10;" d="&#10;&#9;&#9;&#9;M181.79,99.16c31.38-14.88,67.53-20.51,104.34-14.02C374.09,100.65,434.8,179.89,429.17,267"/>
		<path style="fill:none;stroke:#000000;stroke-width:15;stroke-linecap:round;stroke-linejoin:round;stroke-miterlimit:10;" d="&#10;&#9;&#9;&#9;M151.83,117.26c-33.98,25.5-58.73,63.47-66.69,108.61c-16.64,94.37,46.37,184.36,140.73,200.99c14.4,2.54,28.7,3.22,42.64,2.22"/>
		<path style="fill:none;stroke:#000000;stroke-width:15;stroke-linecap:round;stroke-linejoin:round;stroke-miterlimit:10;" d="&#10;&#9;&#9;&#9;M380.35,406.6l113.93-114.03c-65.35-43.51-138.76-33.34-150.85,30.45c-1.68,8.87-8.93,15.73-17.9,16.78&#10;&#9;&#9;&#9;c-65.17,7.65-72.91,103.78-32.89,154.59l62.97-63.03"/>
		<path style="fill:none;stroke:#000000;stroke-width:15;stroke-linecap:round;stroke-linejoin:round;stroke-miterlimit:10;" d="&#10;&#9;&#9;&#9;M318.29,261.31l24.36-24.37c5.57-5.56,8.35-12.86,8.35-20.16c0-7.29-2.78-14.58-8.35-20.15c-11.13-11.13-29.18-11.13-40.31,0&#10;&#9;&#9;&#9;l-60.94,60.93c-3.18,3.19-8.34,3.19-11.52,0l-20.2-20.19c-11.13-11.14-29.18-11.14-40.31,0l-0.02,0.01&#10;&#9;&#9;&#9;c-11.13,11.14-11.13,29.18,0,40.32l31.7,31.7c19.1,19.09,50.05,19.09,69.14,0l23.35-23.34"/>
	</g>
</g>















</svg>
