<?xml version="1.0" encoding="UTF-8"?>
<svg xmlns="http://www.w3.org/2000/svg" xmlns:xlink="http://www.w3.org/1999/xlink" version="1.1" id="Capa_1" x="0px" y="0px" viewBox="0 0 511.9 511.9" style="enable-background:new 0 0 511.9 511.9;" xml:space="preserve" width="512" height="512">
<g>
	<g>
		<path style="fill:#FFD250;" d="M396.194,186.588c18.009,29.388,33.872,62.677,34.57,96.441c0.091,4.425,6.192,5.414,7.695,1.251&#10;&#9;&#9;&#9;c10.827-29.982,11.969-62.535,4.126-93.911c-12.442-49.775-43.064-84.671-76.954-121.07&#10;&#9;&#9;&#9;c-9.434-10.133-22.612-22.661-29.896-36.488c-1.893-3.594-7.319-2.362-7.465,1.697c-1.104,30.541,13.481,57.919,29.306,86.77&#10;&#9;&#9;&#9;C372.5,148.487,380.06,160.247,396.194,186.588z"/>
		<path style="fill:#FFC433;" d="M438.46,284.28c-1.5,4.16-7.61,3.17-7.7-1.25c-0.19-8.95-1.44-17.87-3.51-26.69&#10;&#9;&#9;&#9;c1.67-18.32,0.15-36.97-4.42-55.22c-12.44-49.78-43.06-84.67-76.95-121.07c-4.1-4.41-8.91-9.28-13.64-14.5&#10;&#9;&#9;&#9;c-2.83-10.09-4.35-20.37-3.97-31.04c0.15-4.06,5.57-5.29,7.46-1.7c7.29,13.83,20.47,26.36,29.9,36.49&#10;&#9;&#9;&#9;c33.89,36.4,64.51,71.29,76.96,121.07C450.43,221.75,449.29,254.3,438.46,284.28z"/>
		<path style="fill:#FFD250;" d="M120.139,115.444c-8.283,11.235-13.038,15.064-20.451,26.891&#10;&#9;&#9;&#9;c-5.725,9.134-11.963,26.533-10.817,39.249c0.208,2.304-2.741,3.467-4.186,1.66c-7.567-9.46-14.111-21.365-17.468-31.84&#10;&#9;&#9;&#9;c-4.405-13.748-4.165-29.267,2.321-42.164c8.288-16.481,25.09-26.529,40.126-37.215c10.987-7.808,22.001-17.45,27.73-29.249&#10;&#9;&#9;&#9;c1.112-2.29,4.54-1.463,4.48,1.082C141.291,68.652,133.722,97.019,120.139,115.444z"/>
		<path style="fill:#FFC433;" d="M141.88,43.86c-0.59,24.79-8.16,53.16-21.74,71.58c-8.28,11.24-13.04,15.07-20.45,26.9&#10;&#9;&#9;&#9;c-5.73,9.13-11.96,26.53-10.82,39.24c0.21,2.31-2.74,3.47-4.18,1.66c-7.54-9.42-14.06-21.25-17.42-31.7&#10;&#9;&#9;&#9;c1.94-5.44,4.31-10.39,6.59-14.02c7.41-11.83,12.17-15.66,20.45-26.89c8-10.86,13.92-25.17,17.55-40.17&#10;&#9;&#9;&#9;c10.23-7.53,20.19-16.66,25.53-27.68C138.51,40.49,141.94,41.31,141.88,43.86z"/>
		<path style="fill:#FF982A;" d="M360.085,232.665c13.382,26.968,22.183,55.824,23.834,86.454&#10;&#9;&#9;&#9;c2.342,43.44-7.893,88.672-33.962,124.069c-17.601,23.9-41.987,41.94-69.868,52.071c-18.432,6.697-36.829,8.571-56.264,9.087&#10;&#9;&#9;&#9;c-90.709,2.407-166.105-74.579-159.142-173.846c2.421-34.516,12.098-68.648,26.675-99.402c1.889-3.986,6.7-5.671,10.642-3.693&#10;&#9;&#9;&#9;c10.899,5.471,30.101,20.617,31.843,59.798c1.245,27.928,12.558,49.479,35.178,57.887c9.595,3.567,18.876-5.846,15.018-15.328&#10;&#9;&#9;&#9;c-20.213-49.686-58.863-187.998,65.169-319.779c4.642-4.932,12.941-2.072,13.602,4.669c2.161,22.019,9.776,50.153,14.361,67.145&#10;&#9;&#9;&#9;c3.775,13.987,8.768,27.641,14.801,40.812C310.007,161.974,340.84,193.881,360.085,232.665z"/>
		<path style="fill:#FF8700;" d="M349.96,443.19c-17.6,23.9-41.99,41.94-69.87,52.07c-18.04,6.56-36.05,8.49-55.03,9.05&#10;&#9;&#9;&#9;c4.56-1.11,9.1-2.47,13.64-4.12c27.88-10.13,52.27-28.17,69.87-52.07c26.07-35.39,36.3-80.63,33.96-124.07&#10;&#9;&#9;&#9;c-1.65-30.63-10.45-59.48-23.83-86.45c-19.25-38.79-50.08-70.69-68.11-110.06c-6.04-13.17-11.03-26.82-14.81-40.81&#10;&#9;&#9;&#9;c-3.29-12.22-8.16-30.19-11.43-47.51c7.44-9.76,15.71-19.52,24.86-29.24c4.64-4.93,12.94-2.07,13.6,4.67&#10;&#9;&#9;&#9;c2.16,22.02,9.78,50.16,14.36,67.15c3.78,13.98,8.77,27.64,14.8,40.81c18.04,39.36,48.87,71.27,68.12,110.06&#10;&#9;&#9;&#9;c13.38,26.96,22.18,55.82,23.83,86.45C386.26,362.56,376.03,407.79,349.96,443.19z"/>
		<path style="fill:#FFD250;" d="M186.631,459.815c-17.562-8.709-29.334-22.313-37.093-40.277c-5.54-12.827-7.808-27.151-6.47-41.08&#10;&#9;&#9;&#9;c0.166-1.727,2.276-2.462,3.512-1.246c4.041,3.978,8.415,7.668,12.889,11.103c15.083,11.579,36.062,19.909,53.829,9.061&#10;&#9;&#9;&#9;c17.049-10.41,23.936-33.881,26.803-52.382c1.758-11.344,1.315-23.195,1.057-34.705c-0.036-1.591,1.686-2.607,3.066-1.814&#10;&#9;&#9;&#9;c25.385,14.596,50.947,29.371,58.457,60.242c13.078,53.758-32.232,103.156-86.681,99.112&#10;&#9;&#9;&#9;C205.806,467.072,195.791,464.357,186.631,459.815z"/>
		<path style="fill:#FFC433;" d="M216,467.83c-10.19-0.76-20.21-3.47-29.37-8.02c-0.53-0.26-1.05-0.53-1.57-0.8&#10;&#9;&#9;&#9;c49.97-2.06,89.25-48.73,76.97-99.26c-3.53-14.49-11.02-25.42-20.62-34.47c0.01-5.01-0.14-10.03-0.25-14.99&#10;&#9;&#9;&#9;c-0.04-1.59,1.68-2.61,3.06-1.81c25.39,14.59,50.95,29.37,58.46,60.24C315.76,422.47,270.45,471.87,216,467.83z"/>
	</g>
	<g>
		<path style="fill:none;stroke:#000000;stroke-width:15;stroke-linecap:round;stroke-linejoin:round;stroke-miterlimit:10;" d="&#10;&#9;&#9;&#9;M86.618,427.347c-16.079-27.486-24.47-60.689-21.934-96.848c2.421-34.516,12.098-68.648,26.675-99.402&#10;&#9;&#9;&#9;c1.889-3.986,6.7-5.671,10.642-3.693c10.899,5.471,30.101,20.617,31.843,59.798c1.245,27.928,12.558,49.479,35.178,57.887&#10;&#9;&#9;&#9;c9.595,3.567,18.876-5.846,15.018-15.328c-20.213-49.686-58.863-187.998,65.169-319.779c4.642-4.932,12.941-2.072,13.602,4.669&#10;&#9;&#9;&#9;c2.161,22.019,9.776,50.153,14.361,67.145c3.775,13.987,8.768,27.641,14.801,40.812c18.033,39.365,48.865,71.271,68.111,110.056&#10;&#9;&#9;&#9;c13.382,26.968,22.183,55.824,23.834,86.454c2.342,43.44-7.893,88.672-33.962,124.069c-17.601,23.9-41.987,41.94-69.868,52.071&#10;&#9;&#9;&#9;c-18.432,6.697-36.829,8.571-56.264,9.087c-45.221,1.2-86.637-17.332-115.939-48.519"/>
		<path style="fill:none;stroke:#000000;stroke-width:15;stroke-linecap:round;stroke-linejoin:round;stroke-miterlimit:10;" d="&#10;&#9;&#9;&#9;M186.631,459.815c-17.562-8.709-29.334-22.313-37.093-40.277c-5.54-12.827-7.808-27.151-6.47-41.08&#10;&#9;&#9;&#9;c0.166-1.727,2.276-2.462,3.512-1.246c4.041,3.978,8.415,7.668,12.889,11.103c15.083,11.579,36.062,19.909,53.829,9.061&#10;&#9;&#9;&#9;c17.049-10.41,23.936-33.881,26.803-52.382c1.758-11.344,1.315-23.195,1.057-34.705c-0.036-1.591,1.686-2.607,3.066-1.814&#10;&#9;&#9;&#9;c25.385,14.596,50.947,29.371,58.457,60.242c13.078,53.758-32.232,103.156-86.681,99.112&#10;&#9;&#9;&#9;C205.806,467.072,195.791,464.357,186.631,459.815z"/>
		<path style="fill:none;stroke:#000000;stroke-width:15;stroke-linecap:round;stroke-linejoin:round;stroke-miterlimit:10;" d="&#10;&#9;&#9;&#9;M387.908,173.096c2.53,4.116,5.257,8.547,8.285,13.492c18.009,29.388,33.872,62.677,34.57,96.441&#10;&#9;&#9;&#9;c0.091,4.425,6.192,5.414,7.695,1.251c10.827-29.982,11.969-62.535,4.126-93.911c-12.442-49.775-43.064-84.671-76.954-121.07&#10;&#9;&#9;&#9;c-9.434-10.133-22.612-22.661-29.896-36.488c-1.893-3.594-7.319-2.362-7.465,1.697c-1.104,30.541,13.481,57.919,29.306,86.77&#10;&#9;&#9;&#9;c4.642,8.463,8.572,15.432,12.269,21.809"/>
		<path style="fill:none;stroke:#000000;stroke-width:15;stroke-linecap:round;stroke-linejoin:round;stroke-miterlimit:10;" d="&#10;&#9;&#9;&#9;M120.139,115.444c-8.283,11.235-13.038,15.064-20.451,26.891c-5.725,9.134-11.963,26.533-10.817,39.249&#10;&#9;&#9;&#9;c0.208,2.304-2.741,3.467-4.186,1.66c-7.567-9.46-14.111-21.365-17.468-31.84c-4.405-13.748-4.165-29.267,2.321-42.164&#10;&#9;&#9;&#9;c8.288-16.481,25.09-26.529,40.126-37.215c10.987-7.808,22.001-17.45,27.73-29.249c1.112-2.29,4.54-1.463,4.48,1.082&#10;&#9;&#9;&#9;C141.291,68.652,133.722,97.019,120.139,115.444z"/>
		<g>
			
				<line style="fill:none;stroke:#000000;stroke-width:15;stroke-linecap:round;stroke-linejoin:round;stroke-miterlimit:10;" x1="127.626" y1="187.136" x2="127.626" y2="187.136"/>
		</g>
		<g>
			
				<line style="fill:none;stroke:#000000;stroke-width:15;stroke-linecap:round;stroke-linejoin:round;stroke-miterlimit:10;" x1="96.882" y1="36.621" x2="96.882" y2="36.621"/>
		</g>
		<g>
			
				<line style="fill:none;stroke:#000000;stroke-width:15;stroke-linecap:round;stroke-linejoin:round;stroke-miterlimit:10;" x1="141.912" y1="150.015" x2="141.912" y2="150.015"/>
		</g>
		<g>
			
				<line style="fill:none;stroke:#000000;stroke-width:15;stroke-linecap:round;stroke-linejoin:round;stroke-miterlimit:10;" x1="392.688" y1="40.334" x2="392.688" y2="40.334"/>
		</g>
		<g>
			
				<line style="fill:none;stroke:#000000;stroke-width:15;stroke-linecap:round;stroke-linejoin:round;stroke-miterlimit:10;" x1="422.185" y1="69.832" x2="422.185" y2="69.832"/>
		</g>
		<g>
			
				<line style="fill:none;stroke:#000000;stroke-width:15;stroke-linecap:round;stroke-linejoin:round;stroke-miterlimit:10;" x1="312.089" y1="87.696" x2="312.089" y2="87.696"/>
		</g>
	</g>
</g>















</svg>
