<svg id="Capa_1" enable-background="new 0 0 512 512" height="512" viewBox="0 0 512 512" width="512" xmlns="http://www.w3.org/2000/svg"><g><g><path d="m168.391 322.217 27-77.943-107.102-15.315c10.709 64.224 41.981 85.532 80.102 93.258z" fill="#e4996d"/><path d="m343.613 322.217-27-77.943 107.102-15.315c-10.71 64.224-41.982 85.532-80.102 93.258z" fill="#eaaa83"/><g><path d="m431.06 227.29h-180.98c-71.022-42.216-104.095-106.854-72.11-201.45 23.18-12 49.56-18.34 78.03-18.34 103.79 0 179.9 84.17 175.06 219.79z" fill="#eaaa83"/><path d="m250.08 227.29h-168.87c-3.56-98.37 35.45-169.71 96.76-201.45-.94 84.74 23.37 152.16 72.11 201.45z" fill="#e4996d"/></g><ellipse cx="397.228" cy="211.052" fill="#ffddcf" rx="37.255" ry="47.263"/><ellipse cx="114.776" cy="211.052" fill="#ffcbbe" rx="37.255" ry="47.263"/><g><path d="m395.71 197.56c0 37.38-13.58 71.46-35.88 97.21-134.231-22.575-194.308-96.668-179.32-219.48 21.77-14.58 47.69-23.03 75.5-23.03 77.15 0 139.7 65.06 139.7 145.3z" fill="#ffddcf"/><path d="m359.83 294.77c-25.57 29.52-62.61 48.08-103.82 48.08-77.16 0-139.71-65.05-139.71-145.29 0-51.32 25.59-96.43 64.21-122.27 12.8 107.12 73.29 180.98 179.32 219.48z" fill="#ffcbbe"/></g><g><path d="m421.01 155-15.15 43.78c-3.69 10.66-19.45 8.01-19.45-3.27v-16.6c0-2.54-1.9-4.65-4.42-4.96-33.13-4.13-74.08-25.01-94.46-52.34-3.75-5.02-11.1-5.25-15.33-.64-17.64 19.23-42.52 31.94-68.65 38.89-33.784-30.501-41.999-66.147-24.98-106.83 4.59-1.05 9.28-1.81 14.06-2.27 43-4.11 85.08-3.99 126.32-.08 46.01 4.36 84.41 36.95 96.12 81.65z" fill="#eaaa83"/><path d="m203.55 159.86c-24.66 6.56-50.43 7.99-72.29 4.92-3-.41-5.66 1.94-5.66 4.96v25.77c0 11.28-15.76 13.93-19.45 3.27l-15.14-43.78 5.92-22.63c10.45-39.91 42.18-70.29 81.64-79.34 2.25 39.87 10.61 75.51 24.98 106.83z" fill="#e4996d"/></g><g><path d="m391.033 67.711s58.177-24.185 75.826 70.763c1.649 8.873 13.301 11.297 18.194 3.713 63.478-98.393-42.113-177.842-120.657-108.473-31.433 15.95 16.247 39.097 26.637 33.997z" fill="#eaaa83"/><path d="m395.711 84.416c-7.404 6.213-18.442 5.247-24.655-2.157l-22.498-26.812c-6.213-7.404-5.247-18.442 2.157-24.655 7.404-6.213 18.442-5.247 24.655 2.157l22.498 26.812c6.212 7.405 5.246 18.443-2.157 24.655z" fill="#fbf198"/></g><g><path d="m120.967 67.711s-58.177-24.185-75.826 70.763c-1.649 8.873-13.301 11.297-18.194 3.713-63.478-98.393 42.113-177.842 120.657-108.473 31.433 15.95-16.247 39.097-26.637 33.997z" fill="#e4996d"/><path d="m116.289 84.416c7.404 6.213 18.442 5.247 24.655-2.157l22.498-26.812c6.213-7.404 5.247-18.442-2.157-24.655-7.404-6.213-18.442-5.247-24.655 2.157l-22.498 26.812c-6.212 7.405-5.246 18.443 2.157 24.655z" fill="#fbf198"/></g><g><g><path d="m356 276.672v166.12l-40.24 13.41c-83.855-26.273-126.238-82.245-104.46-174.97l41.54 13.84c2.05.68 4.27.68 6.32 0l83.68-27.89c6.47-2.16 13.16 2.66 13.16 9.49z" fill="#fff8e6"/><path d="m315.76 456.203-59.76 19.919-100-33.33v-166.12c0-6.83 6.69-11.65 13.16-9.49l42.14 14.04c.66 83.56 36.03 142.4 104.46 174.981z" fill="#ffeab7"/></g><g><path d="m376 300.003v151.71c0 8.61-5.51 16.25-13.68 18.97l-3.83 1.28h-.01c-99.338-11.609-154.762-59.694-145.25-160.1l36.45 12.15c4.1 1.37 8.54 1.37 12.64 0l100.52-33.5c6.47-2.161 13.16 2.659 13.16 9.49z" fill="#8ce09f"/><path d="m358.49 471.962-93 31c-6.16 2.05-12.82 2.05-18.98 0l-96.83-32.28c-8.17-2.72-13.68-10.36-13.68-18.97v-151.71c0-6.83 6.69-11.65 13.16-9.49l64.07 21.35c10.05 82.17 59.14 136.16 145.26 160.1z" fill="#73da8c"/></g></g><path d="m386 415.335h-5c-19.33 0-35-15.67-35-35 0-19.33 15.67-35 35-35h5c11.046 0 20 8.954 20 20v30c0 11.046-8.954 20-20 20z" fill="#ffddcf"/><path d="m126 415.335h5c19.33 0 35-15.67 35-35 0-19.33-15.67-35-35-35h-5c-11.046 0-20 8.954-20 20v30c0 11.046 8.954 20 20 20z" fill="#ffcbbe"/><g><g><g><g><ellipse cx="176.449" cy="231.288" fill="#ffa1ac" rx="29.355" ry="23.377"/></g><g><ellipse cx="335.562" cy="231.288" fill="#ffa1ac" rx="29.355" ry="23.377"/></g></g></g></g></g><g><g><path d="m193.557 216.285c-4.142 0-7.5-3.358-7.5-7.5v-12c0-4.142 3.358-7.5 7.5-7.5s7.5 3.358 7.5 7.5v12c0 4.142-3.358 7.5-7.5 7.5z"/><path d="m318.454 216.285c-4.142 0-7.5-3.358-7.5-7.5v-12c0-4.142 3.358-7.5 7.5-7.5s7.5 3.358 7.5 7.5v12c0 4.142-3.358 7.5-7.5 7.5z"/><path d="m256.005 223.428c-8.478 0-16.54-3.671-22.119-10.073-2.721-3.123-2.396-7.86.727-10.582 3.123-2.721 7.86-2.396 10.582.727 2.729 3.132 6.669 4.928 10.81 4.928s8.081-1.796 10.81-4.928c2.722-3.123 7.459-3.447 10.582-.727 3.123 2.722 3.448 7.459.727 10.582-5.579 6.402-13.641 10.073-22.119 10.073z"/></g><path d="m511.691 75.307c-1.743-20.745-10.967-39.735-25.973-53.471-14.9-13.639-34.569-21.387-55.384-21.816-21.127-.427-42.194 6.555-61.142 20.256-7.469-2.244-15.851-.965-22.426 4.075-26.56-15.951-57.804-24.351-90.766-24.351-32.979 0-64.217 8.41-90.752 24.376-6.574-5.05-14.959-6.336-22.432-4.095-18.95-13.705-40.013-20.692-61.15-20.261-20.815.428-40.484 8.176-55.384 21.815-15.005 13.737-24.229 32.727-25.973 53.472-1.918 22.828 5.112 47.365 20.332 70.959 3.251 5.041 8.729 7.958 14.559 7.958 1.13 0 2.275-.11 3.418-.335 7.113-1.401 12.564-6.912 13.889-14.037 10.117-54.424 33.331-66.371 50.082-67.319.248 4.072 1.483 8.079 3.672 11.628-17.466 28.98-28.067 63.422-31.534 102.482-3.041 7.484-4.707 15.829-4.707 24.408 0 16.791 6.206 31.841 15.957 41.896 8.263 28.679 22.207 48.994 42.523 61.918v22.971h-2.5c-15.164 0-27.5 12.336-27.5 27.5v30c0 15.164 12.336 27.5 27.5 27.5h2.5v28.89c0 11.857 7.56 22.34 18.808 26.085l96.833 32.281c3.824 1.272 7.84 1.909 11.858 1.909s8.038-.637 11.863-1.91l31.92-10.64c3.93-1.31 6.053-5.558 4.744-9.487-1.31-3.93-5.559-6.055-9.487-4.744l-31.917 10.639c-4.592 1.529-9.65 1.529-14.24.001l-96.833-32.28c-5.114-1.703-8.549-6.467-8.549-11.854v-30.766c17.353-5.35 30-21.538 30-40.624s-12.647-35.273-30-40.624v-39.712c0-1.117.652-1.753 1.041-2.033.387-.279 1.193-.694 2.249-.342l42.98 14.32c3.928 1.31 8.177-.815 9.486-4.745 1.31-3.93-.815-8.177-4.745-9.486l-31.011-10.332v-10.712c0-1.117.652-1.753 1.04-2.033.387-.279 1.194-.693 2.249-.342l83.69 27.893c1.779.59 3.648.885 5.519.885 1.873 0 3.748-.296 5.534-.889l83.683-27.891c1.052-.351 1.858.064 2.245.343.388.28 1.04.916 1.04 2.033v10.713l-88.558 29.513c-2.542.851-5.343.849-7.892-.002l-24.34-8.11c-3.93-1.31-8.177.814-9.486 4.745-1.31 3.93.815 8.177 4.745 9.486l24.333 8.108c5.608 1.875 11.787 1.875 17.388.002l100.523-33.501c1.052-.351 1.858.064 2.245.343.389.28 1.041.916 1.041 2.033v39.711c-17.353 5.35-30 21.538-30 40.624s12.647 35.273 30 40.624v30.751c0 5.388-3.436 10.152-8.553 11.855l-31.7 10.57c-3.929 1.31-6.053 5.558-4.742 9.487 1.048 3.143 3.974 5.129 7.114 5.129.786 0 1.586-.125 2.374-.387l31.696-10.568c11.251-3.746 18.811-14.229 18.811-26.086v-28.875h2.5c15.164 0 27.5-12.336 27.5-27.5v-30c0-15.164-12.336-27.5-27.5-27.5h-2.5v-22.971c20.316-12.924 34.26-33.239 42.523-61.918 9.752-10.055 15.957-25.105 15.957-41.896 0-8.266-1.547-16.315-4.38-23.585-1.556-17.965-4.691-35.225-9.323-51.319-1.146-3.981-5.299-6.277-9.282-5.133-3.981 1.146-6.279 5.301-5.133 9.282 2.144 7.451 3.949 15.176 5.405 23.125-.322-.168-.661-.314-1.014-.437-3.916-1.356-8.186.72-9.541 4.634l-9.94 28.71c-.459 1.328-1.393 1.886-2.778 1.649-1.383-.232-2.084-1.062-2.084-2.466v-16.6c0-6.301-4.731-11.633-10.992-12.402-33.03-4.118-71.453-25.347-89.379-49.386-3.094-4.143-7.831-6.667-12.995-6.928-5.252-.257-10.3 1.815-13.872 5.708-14.968 16.322-36.727 28.816-62.924 36.13-23.58 6.583-48.953 8.472-71.474 5.317-3.564-.484-7.171.593-9.888 2.963-2.724 2.377-4.286 5.813-4.286 9.428v25.77c0 1.404-.701 2.234-2.085 2.466-1.384.233-2.319-.322-2.777-1.647l-9.93-28.72c-1.354-3.915-5.625-5.989-9.539-4.638-.275.095-.54.204-.796.327 4.685-25.759 13.003-48.943 24.849-69.227 3.039 1.285 6.313 1.952 9.666 1.952.737 0 1.479-.032 2.222-.097 6.652-.582 12.68-3.72 16.972-8.835l22.498-26.811c4.292-5.116 6.336-11.597 5.754-18.249-.161-1.837-.517-3.627-1.055-5.345 24.207-14.394 51.799-21.685 82.122-21.685 30.301 0 57.893 7.28 82.122 21.651-.543 1.726-.901 3.523-1.063 5.369-.582 6.652 1.462 13.133 5.754 18.249l22.497 26.812c4.292 5.116 10.32 8.253 16.972 8.835.744.065 1.485.097 2.222.097 3.399 0 6.718-.686 9.792-2.005 2.756 4.71 5.338 9.612 7.709 14.641 1.279 2.713 3.976 4.303 6.789 4.303 1.072 0 2.16-.231 3.194-.718 3.747-1.767 5.352-6.236 3.585-9.982-2.966-6.291-6.24-12.402-9.763-18.228 2.138-3.515 3.347-7.472 3.593-11.492 16.752.943 39.971 12.889 50.089 67.32 1.324 7.125 6.776 12.636 13.889 14.037 1.144.226 2.287.335 3.418.335 5.83 0 11.308-2.918 14.56-7.958 15.219-23.594 22.25-48.131 20.332-70.959zm-405.618 189.475c2.814.681 5.722 1.038 8.697 1.038 3.043 0 6.044-.367 8.979-1.095 3.464 7.344 7.491 14.384 12.042 21.058-.006.005-.013.009-.019.014-3.604 2.596-6.058 6.464-6.925 10.747-9.484-7.986-17.031-18.508-22.774-31.762zm52.427 115.553c0 15.164-12.336 27.5-27.5 27.5h-5c-6.893 0-12.5-5.607-12.5-12.5v-30c0-6.893 5.607-12.5 12.5-12.5h5c15.164 0 27.5 12.337 27.5 27.5zm227.5-27.5c6.893 0 12.5 5.607 12.5 12.5v30c0 6.893-5.607 12.5-12.5 12.5h-5c-15.164 0-27.5-12.336-27.5-27.5s12.336-27.5 27.5-27.5zm-2.847-56.291c-.867-4.283-3.321-8.151-6.925-10.747-.006-.005-.013-.009-.019-.014 4.552-6.674 8.579-13.714 12.042-21.058 2.935.727 5.936 1.095 8.979 1.095 2.975 0 5.883-.357 8.697-1.038-5.743 13.254-13.29 23.776-22.774 31.762zm-290.071-112.609 5.981 17.297c2.51 7.25 9.002 11.793 16.382 11.793 1.005 0 2.028-.084 3.058-.258 8.595-1.445 14.597-8.542 14.597-17.259v-22.927c6.621.799 13.637 1.215 20.923 1.215 41.978-.002 92.58-13.818 123.703-47.757.74-.806 1.606-.89 2.062-.866.494.025 1.196.206 1.729.919 20.036 26.869 60.687 49.754 97.393 55.011v14.406c0 8.716 6.002 15.813 14.597 17.259 8.591 1.444 16.589-3.298 19.44-11.535l5.983-17.281c5.097 7.276 8.05 16.912 8.05 27.097 0 21.929-13.346 39.77-29.75 39.77-3.363 0-6.663-.756-9.807-2.247-.107-.051-.216-.1-.327-.146-3.821-1.594-8.215.214-9.808 4.037-3.725 8.936-8.347 17.423-13.788 25.33v-1.125c0-5.613-2.719-10.923-7.272-14.204-4.551-3.279-10.445-4.176-15.759-2.401l-83.669 27.886c-.514.17-1.082.172-1.587.003l-83.676-27.888c-5.319-1.775-11.212-.878-15.763 2.4-4.554 3.281-7.272 8.59-7.272 14.204v1.125c-5.441-7.908-10.062-16.394-13.788-25.33-1.593-3.823-5.987-5.631-9.808-4.037-.111.046-.22.095-.327.146-3.145 1.491-6.444 2.247-9.807 2.247-16.404 0-29.75-17.841-29.75-39.77-.002-10.192 2.956-19.836 8.06-27.114zm13.425-126.444c-9.781-.294-22.431 1.851-34.663 11.288-16.563 12.78-28.031 35.77-34.084 68.331-.279 1.499-1.399 1.935-2.042 2.062-.729.144-1.752.081-2.472-1.037-13.408-20.785-19.628-42.076-17.99-61.572 1.427-16.976 8.94-32.482 21.154-43.663 12.212-11.179 28.394-17.53 45.565-17.884 16.29-.321 32.648 4.65 47.766 14.479l-21.361 25.456c-.685.817-1.309 1.666-1.873 2.54zm51.183-6.854-22.498 26.812c-1.717 2.046-4.127 3.301-6.789 3.534-2.66.232-5.253-.584-7.299-2.302-4.224-3.545-4.777-9.865-1.233-14.089l22.498-26.811c3.545-4.224 9.864-4.777 14.089-1.232 2.046 1.717 3.301 4.127 3.534 6.789.232 2.661-.585 5.253-2.302 7.299zm233.2 28.034c-2.046 1.717-4.636 2.535-7.299 2.302-2.661-.233-5.072-1.488-6.789-3.534l-22.498-26.812c-3.544-4.224-2.991-10.543 1.232-14.088 1.87-1.569 4.15-2.335 6.42-2.335 2.856 0 5.693 1.214 7.669 3.568l22.497 26.812c3.545 4.223 2.991 10.542-1.232 14.087zm87.864 59.464c-.721 1.117-1.743 1.18-2.473 1.037-.643-.126-1.763-.563-2.042-2.062-13.169-70.843-49.159-80.127-68.74-79.607-.567-.882-1.196-1.738-1.887-2.562l-21.352-25.448c15.116-9.83 31.472-14.805 47.765-14.478 17.171.354 33.353 6.706 45.565 17.884 12.214 11.181 19.727 26.688 21.153 43.663 1.639 19.497-4.582 40.788-17.989 61.573z"/></g></g></svg>