<svg id="Capa_1" enable-background="new 0 0 512 512" height="512" viewBox="0 0 512 512" width="512" xmlns="http://www.w3.org/2000/svg"><g><g><path d="m228.721 434.5h-130c-33.138 0-60.001-26.863-60.001-60.001s26.863-60.001 60.001-60.001h130 245.779v120.002z" fill="#efedff"/><path d="m252.499 374.499c0 16.569 13.432 30.001 30.001 30.001l-183.779 30-60.001-60.001 58.537-60.001 185.243 30c-16.569 0-30.001 13.432-30.001 30.001z" fill="#d4d4ff"/></g><path d="m474.5 344.498h-177-27.44c-64.735 0-123.091-39.008-147.843-98.824l-19.107-76.176 21.322-57.569c23.247-62.766 83.107-104.429 150.04-104.429h23.028 177c16.569 0 30 13.431 30 30v276.998c0 16.569-13.431 30-30 30z" fill="#8288cb"/><path d="m474.5 404.5h-377c-16.543 0-30-13.459-30-29.998 0-16.543 13.457-30.004 30-30.004h185c-49.625 0-90-40.375-90-90 0-10.843 0-141.365 0-156.998 0-49.625 40.375-90 90-90h-185c-49.625 0-90 40.375-90 90v276.998c0 49.627 40.375 90.002 90 90.002h377c16.57 0 30-13.432 30-30s-13.43-30-30-30z" fill="#676fb2"/><path d="m107.5 374.502v109.998c0 11.046 8.954 20 20 20 6.295 0 12.223-2.964 16-8l24-32 24 32c3.777 5.036 9.705 8 16 8 11.046 0 20-8.954 20-20v-109.998z" fill="#ff8e9e"/><g fill="#ffdbe0"><ellipse cx="172.5" cy="110.981" rx="30" ry="25"/><ellipse cx="339.5" cy="110.981" rx="30" ry="25"/></g><g><path d="m512 314.498v-276.998c0-20.678-16.822-37.5-37.5-37.5-14.25 0-281.265 0-295.391 0-4.14 0-7.5 3.37-7.5 7.5s3.36 7.5 7.5 7.5h295.391c12.406 0 22.5 10.094 22.5 22.5v276.998c0 12.406-10.094 22.5-22.5 22.5h-377c-20.678 0-37.5 16.824-37.5 37.504 0 20.677 16.822 37.498 37.5 37.498h2.5v45h-2.5c-45.49 0-82.499-37.009-82.5-82.5.001-45.492 37.01-82.502 82.5-82.502h347c4.143 0 7.5-3.357 7.5-7.5s-3.357-7.5-7.5-7.5h-347c-34.698 0-65.216 18.224-82.5 45.599v-225.097c0-45.781 37.265-82.5 82.5-82.5h51.609c4.13 0 7.5-3.37 7.5-7.5s-3.37-7.5-7.5-7.5h-51.609c-53.638 0-97.5 43.598-97.5 97.5v277s0 .001 0 .001 0 .001 0 .001c.003 53.762 43.74 97.498 97.5 97.498h2.5v12.5c0 15.163 12.337 27.5 27.5 27.5 8.609 0 16.834-4.112 22-11l18-24 18 24c5.166 6.888 13.391 11 22 11 15.163 0 27.5-12.337 27.5-27.5v-12.5h140.79c4.13 0 7.5-3.36 7.5-7.5 0-4.13-3.37-7.5-7.5-7.5h-140.79v-45h239.5c12.39.02 22.479 10.12 22.5 22.5-.021 12.38-10.11 22.479-22.5 22.5h-68.71c-4.141 0-7.5 3.37-7.5 7.5 0 4.14 3.359 7.5 7.5 7.5h68.71c20.734 0 37.5-16.766 37.5-37.5 0-10.021-3.9-19.431-10.98-26.511-5.279-5.287-11.86-8.796-19.02-10.241v-46.505c17.096-3.484 30-18.635 30-36.745zm-435.709 67.504h23.709v14.998h-2.5c-9.777 0-18.113-6.27-21.209-14.998zm143.709 102.498c0 6.893-5.607 12.5-12.5 12.5-3.913 0-7.651-1.869-10-5l-24-32c-3-4.001-9.006-3.993-12 0l-24 32c-2.349 3.131-6.087 5-10 5-6.893 0-12.5-5.607-12.5-12.5v-102.498h105zm247-117.498h-23.816c-4.143 0-7.5 3.357-7.5 7.5s3.357 7.5 7.5 7.5h23.816v14.998h-232v-14.998h15.5c4.143 0 7.5-3.357 7.5-7.5s-3.357-7.5-7.5-7.5h-174.21c3.096-8.731 11.433-15.004 21.21-15.004h369.5z"/><path d="m455.398 225.929h.019c4.134 0 7.49-3.346 7.5-7.481l.07-28.433 17.798-27.341c2.26-3.472 1.278-8.117-2.193-10.377-3.471-2.258-8.116-1.277-10.377 2.193l-12.732 19.559-12.875-19.72c-2.267-3.469-6.911-4.441-10.381-2.18-3.468 2.265-4.444 6.912-2.18 10.381l17.94 27.475-.07 28.406c-.01 4.142 3.34 7.508 7.481 7.518z"/><path d="m223.63 158.429c0 4.143 3.357 7.5 7.5 7.5h9.001v52.5c0 4.143 3.357 7.5 7.5 7.5s7.5-3.357 7.5-7.5v-52.5h9.134c4.143 0 7.5-3.357 7.5-7.5s-3.357-7.5-7.5-7.5h-33.135c-4.143 0-7.5 3.357-7.5 7.5z"/><path d="m188.445 225.929c12.645 0 23.263-8.068 25.247-19.186 1.494-8.365-2.304-19.294-17.441-24.878-7.371-2.718-14.231-5.679-16.337-6.601-2.644-2.124-2.007-7.111 3.304-8.711 8.442-2.551 16.276 3.628 16.511 3.816 3.172 2.63 7.874 2.21 10.529-.947 2.665-3.171 2.256-7.902-.915-10.567-.566-.476-14.069-11.6-30.452-6.665-8.283 2.495-14.144 9.024-15.294 17.038-1.257 8.76 3.786 16.876 9.548 19.445.347.154 8.609 3.833 17.915 7.265 2.631.971 8.663 3.709 7.866 8.169-.599 3.353-4.683 6.821-10.48 6.821-5.964 0-11.703-2.403-15.352-6.43-2.782-3.07-7.525-3.302-10.594-.521-3.069 2.782-3.303 7.525-.521 10.594 6.445 7.113 16.339 11.358 26.466 11.358z"/><path d="m416.337 174.022c0-12.734-10.756-23.094-23.976-23.094h-15.943c-.003 0-.006 0-.01 0s-.006 0-.01 0c-4.143 0-7.5 3.357-7.5 7.5v60c0 4.143 3.357 7.5 7.5 7.5s7.5-3.357 7.5-7.5v-16.984l19.309 21.939c1.482 1.685 3.553 2.545 5.633 2.545 1.76 0 3.527-.616 4.952-1.87 3.109-2.736 3.411-7.476.675-10.585l-15.248-17.325c9.888-2.848 17.118-11.687 17.118-22.126zm-23.976 8.094c-1.957 0-5.276.014-8.376.028-.015-3.021-.028-6.234-.028-8.122 0-1.605-.008-4.926-.017-8.094h8.421c4.865 0 8.976 3.706 8.976 8.094s-4.11 8.094-8.976 8.094z"/><path d="m278.651 188.429c0 20.678 16.822 37.5 37.5 37.5s37.5-16.822 37.5-37.5-16.822-37.5-37.5-37.5-37.5 16.822-37.5 37.5zm37.5-22.5c12.406 0 22.5 10.094 22.5 22.5s-10.094 22.5-22.5 22.5-22.5-10.094-22.5-22.5 10.094-22.5 22.5-22.5z"/><path d="m131.004 158.429v60c0 4.143 3.357 7.5 7.5 7.5s7.5-3.357 7.5-7.5v-60c0-4.143-3.357-7.5-7.5-7.5s-7.5 3.357-7.5 7.5z"/><path d="m108.627 225.929c4.143 0 7.5-3.357 7.5-7.5v-60c0-4.143-3.357-7.5-7.5-7.5s-7.5 3.357-7.5 7.5v21.471h-26.522v-21.472c0-4.143-3.357-7.5-7.5-7.5s-7.5 3.357-7.5 7.5v60c0 4.143 3.357 7.5 7.5 7.5s7.5-3.357 7.5-7.5v-23.528h26.521v23.528c.001 4.143 3.358 7.501 7.501 7.501z"/><path d="m197.812 98.281v-12c0-4.143-3.357-7.5-7.5-7.5s-7.5 3.357-7.5 7.5v12c0 4.143 3.357 7.5 7.5 7.5s7.5-3.357 7.5-7.5z"/><path d="m277.722 92.554c-3.125-2.722-7.862-2.396-10.582.727-6.166 7.076-17.121 7.067-23.279 0-2.723-3.122-7.46-3.447-10.582-.727-3.122 2.722-3.448 7.459-.727 10.582 12.145 13.936 33.766 13.92 45.896 0 2.722-3.123 2.396-7.861-.726-10.582z"/><path d="m317.413 97.947c0-3.532 2.873-6.406 6.405-6.406s6.406 2.874 6.406 6.406c0 4.143 3.357 7.5 7.5 7.5s7.5-3.357 7.5-7.5c0-11.804-9.603-21.406-21.406-21.406s-21.405 9.603-21.405 21.406c0 4.143 3.357 7.5 7.5 7.5s7.5-3.357 7.5-7.5z"/></g></g></svg>