<svg id="Capa_1" enable-background="new 0 0 512 512" viewBox="0 0 512 512" xmlns="http://www.w3.org/2000/svg"><g><g><path d="m256 171.815c33.812-8.923 67.949-13.451 101.665-13.451 38.01 0 76.552 5.741 114.557 17.063 19.15 5.705 32.278 23.314 32.278 43.296v240.581c0 24.95-20.226 45.177-45.177 45.177h-173.323c-16.569 0-30-13.431-30-30l-30-143.058z" fill="#06ccab"/></g><g><path d="m256 171.815c-33.812-8.923-67.949-13.451-101.665-13.451-38.01 0-76.552 5.741-114.557 17.063-19.151 5.706-32.278 23.314-32.278 43.296v240.581c0 24.95 20.226 45.177 45.177 45.177h173.323c16.569 0 30-13.431 30-30z" fill="#00bd9d"/></g><g><path d="m52.677 397.339v40c0 14.4 13.298 25.139 27.366 22.069 52.35-11.426 104.464-10.792 156.841 1.9 12.568 3.045 25.666 3.045 38.234 0 52.376-12.692 104.49-13.326 156.841-1.9 14.068 3.071 27.366-7.669 27.366-22.069 0-13.993 0-27.247 0-40z" fill="#e1f1fa"/></g><g><path d="m52.677 397.339v40c0 14.4 13.298 25.139 27.366 22.069 52.35-11.426 104.464-10.792 156.841 1.9 6.284 1.523 12.7 2.284 19.117 2.284v-66.253z" fill="#a7ddfa"/></g><g><path d="m256 139.664c60.658-18.069 120.884-20.011 181.449-5.822 12.797 2.998 21.874 14.374 21.874 27.517v235.979c0 14.399-13.298 25.139-27.366 22.069-52.35-11.426-104.464-10.792-156.841 1.9-12.568 3.046-25.666 3.046-38.234 0-52.376-12.692-104.49-13.326-156.841-1.9-14.068 3.07-27.366-7.669-27.366-22.069 0-88.47 0-147.51 0-235.979 0-13.143 9.077-24.519 21.874-27.517 60.567-14.189 120.793-12.247 181.451 5.822z" fill="#f5fafc"/></g><g><path d="m74.551 133.843c-12.797 2.998-21.874 14.374-21.874 27.517v235.979c0 14.399 13.298 25.139 27.366 22.069 52.35-11.426 104.464-10.792 156.841 1.9 6.284 1.523 12.7 2.284 19.117 2.284v-283.928c-60.659-18.069-120.885-20.011-181.45-5.821z" fill="#e1f1fa"/></g><g><path d="m112.677 127.046c-12.704 1.558-25.417 3.819-38.144 6.801-12.792 2.998-21.856 14.393-21.856 27.532v235.942c0 14.401 13.297 25.158 27.366 22.087 52.35-11.426 104.464-10.792 156.84 1.9 6.284 1.523 19.117 2.284 19.117 2.284 0-41.25-38.105-63.356-75.02-75.092-40.838-12.984-68.304-51.284-68.304-94.137v-127.317z" fill="#bde6fc"/></g><g><g><g><path d="m368.479 15.116c-62.159-27.627-112.479 28.613-112.479 28.613s-50.32-56.239-112.479-28.613-62.159 119.385-6.907 180.558c34.043 37.69 71.457 62.271 95.164 75.589 15.048 8.453 33.395 8.453 48.442 0 23.708-13.318 61.122-37.899 95.164-75.589 55.254-61.173 55.254-152.932-6.905-180.558z" fill="#ff9696"/></g></g></g><g><path d="m282.48 195.674c-42.373-46.914-52.247-111.814-26.513-151.982-1.394-1.539-51.165-55.812-112.446-28.576-62.159 27.626-62.159 119.385-6.907 180.558 34.043 37.69 71.457 62.271 95.164 75.589 15.048 8.453 33.395 8.453 48.442 0 13.038-7.324 30.224-18.063 48.712-32.507-15.129-11.82-31.13-26.119-46.452-43.082z" fill="#ff7d81"/></g><g><g><g><g><path d="m203.749 121.913c.007 13.438-13.667 24.338-30.541 24.346s-30.559-10.878-30.566-24.315c-.007-13.438 13.667-24.338 30.541-24.347s30.559 10.878 30.566 24.316z" fill="#fff"/></g></g><g><g><path d="m308.251 121.86c.007 13.438 13.691 24.324 30.566 24.315 16.874-.008 30.548-10.908 30.541-24.346s-13.691-24.325-30.566-24.316c-16.874.009-30.548 10.909-30.541 24.347z" fill="#fff"/></g></g><g><g><path d="m285.944 110.872c-.009-18.509-13.419-20.242-29.96-20.233-16.54.008-29.949 1.754-29.939 20.263.009 18.509 13.426 33.506 29.966 33.498 16.541-.008 29.942-15.019 29.933-33.528z" fill="#495560"/></g></g></g><g><g><path d="m255.997 151.9c-10.157 0-19.659-4.369-26.758-12.305-6.891-7.703-10.689-17.892-10.694-28.689-.014-27.749 25.28-27.762 37.436-27.768h.11c9.969 0 17.947.682 24.461 3.982 8.548 4.33 12.886 12.319 12.892 23.748.011 22.615-16.779 41.022-37.429 41.032-.006 0-.012 0-.018 0zm.111-53.762c-.041 0-.08 0-.12 0-19.354.01-22.448 3.038-22.443 12.76.003 7.105 2.445 13.745 6.874 18.696 4.215 4.711 9.748 7.306 15.579 7.306h.01c12.379-.006 22.444-11.681 22.437-26.024-.003-7.041-2.246-9.146-4.669-10.374-4.089-2.071-10.9-2.364-17.668-2.364z"/></g></g><g><g><path d="m321.699 101.517c-.005 0-.01 0-.015 0-4.142-.008-7.494-3.372-7.486-7.514l.023-12c.008-4.137 3.365-7.486 7.5-7.486h.015c4.142.008 7.494 3.372 7.486 7.514l-.023 12c-.009 4.138-3.366 7.486-7.5 7.486z"/></g></g><g><g><path d="m210.124 100.419c-.006 0-.011 0-.017 0-4.142-.009-7.493-3.375-7.483-7.517.004-1.753-.675-3.402-1.912-4.645-1.236-1.242-2.883-1.928-4.636-1.932-.005 0-.01 0-.015 0-3.612 0-6.555 2.935-6.562 6.548-.009 4.136-3.366 7.483-7.5 7.483-.006 0-.011 0-.017 0-4.142-.009-7.493-3.375-7.483-7.517.013-5.759 2.268-11.169 6.349-15.233 4.082-4.064 9.542-6.297 15.261-6.282 5.759.012 11.169 2.267 15.233 6.349s6.295 9.501 6.282 15.261c-.01 4.138-3.366 7.485-7.5 7.485z"/></g></g></g><g><path d="m474.363 168.239c-2.504-.746-5.025-1.463-7.54-2.163v-4.716c0-16.685-11.375-31.003-27.663-34.819-6.07-1.422-12.206-2.692-18.304-3.802 3.46-17.416 3.639-34.886.16-51.29-6.22-29.326-23.796-51.766-49.491-63.186-27.577-12.257-57.337-10.823-86.062 4.149-13.416 6.992-23.611 15.363-29.463 20.761-5.852-5.398-16.047-13.769-29.463-20.762-28.724-14.971-58.484-16.406-86.062-4.149-25.695 11.42-43.271 33.86-49.491 63.187-3.479 16.403-3.3 33.871.159 51.286-6.095 1.109-12.229 2.383-18.303 3.806-16.288 3.816-27.663 18.134-27.663 34.819v4.716c-2.516.7-5.038 1.418-7.541 2.163-22.159 6.603-37.636 27.362-37.636 50.484v240.581c0 29.046 23.631 52.677 52.677 52.677h173.323c12.254 0 23.153-5.909 30-15.026 6.847 9.117 17.746 15.026 30 15.026h173.323c29.046 0 52.677-23.631 52.677-52.677v-240.581c0-23.122-15.477-43.881-37.637-50.484zm-38.625-27.094c9.471 2.219 16.085 10.531 16.085 20.215v235.979c0 4.592-2.051 8.877-5.628 11.757-3.565 2.871-8.173 3.958-12.638 2.983-9.109-1.988-18.344-3.64-27.449-4.911-4.111-.575-7.892 2.29-8.464 6.392s2.29 7.892 6.392 8.464c8.729 1.217 17.584 2.802 26.322 4.709 2.146.468 4.306.698 6.451.698 5.27 0 10.432-1.408 15.014-4.075v13.981c0 4.592-2.051 8.877-5.628 11.758-3.565 2.871-8.173 3.96-12.639 2.983-53.138-11.597-107.04-10.945-160.206 1.938-3.24.785-6.535 1.338-9.851 1.675v-24.931c4.507-.38 8.986-1.097 13.383-2.163 32.514-7.878 65.419-11.033 97.804-9.372 4.144.217 7.663-2.969 7.875-7.106s-2.969-7.662-7.106-7.875c-33.833-1.733-68.183 1.554-102.105 9.774-3.24.785-6.535 1.338-9.851 1.675v-131.14c7.087-.93 14.028-3.175 20.395-6.751 25.391-14.263 62.84-39.217 97.057-77.101 17.019-18.843 29.35-40.798 36.239-63.378 6.175 1.106 12.396 2.381 18.548 3.822zm-375.561 282.224c6.445 3.751 14.049 4.986 21.465 3.366 50.9-11.109 102.536-10.482 153.476 1.861 4.397 1.066 8.876 1.783 13.383 2.163v24.934c-3.316-.337-6.61-.89-9.851-1.675-53.167-12.884-107.068-13.537-160.206-1.938-4.467.977-9.074-.113-12.639-2.983-3.577-2.88-5.628-7.166-5.628-11.758zm0-262.009c0-9.684 6.614-17.996 16.085-20.215 6.158-1.443 12.376-2.719 18.547-3.824 6.889 22.58 19.221 44.537 36.24 63.38 2.777 3.074 7.519 3.314 10.593.539 3.074-2.776 3.315-7.519.539-10.593-30.08-33.303-44.416-78.869-36.522-116.086 3.675-17.331 13.757-40.523 40.909-52.591 23.447-10.422 47.88-9.235 72.622 3.528 19.021 9.813 31.109 23.107 31.222 23.232 1.42 1.587 3.452 2.491 5.582 2.495h.012c2.125 0 4.155-.906 5.578-2.486.12-.133 12.208-13.428 31.229-23.241 24.742-12.762 49.175-13.948 72.622-3.528 27.152 12.067 37.233 35.26 40.909 52.591 7.893 37.217-6.442 82.784-36.522 116.086-32.857 36.378-68.857 60.363-93.272 74.077-12.675 7.12-28.422 7.12-41.096 0-18.122-10.18-45.47-27.691-72.846-53.308-3.025-2.83-7.771-2.673-10.601.352-2.83 3.024-2.672 7.771.352 10.601 28.469 26.639 56.906 44.848 75.748 55.433 6.368 3.578 13.307 5.822 20.395 6.752v131.14c-3.316-.337-6.61-.89-9.85-1.675-53.167-12.884-107.069-13.536-160.207-1.938-4.466.974-9.073-.112-12.639-2.983-3.577-2.88-5.628-7.166-5.628-11.757v-235.981zm165.823 335.621h-173.323c-20.775 0-37.677-16.902-37.677-37.677v-240.581c0-16.538 11.07-31.386 26.919-36.108 1.081-.322 2.17-.633 3.258-.947v215.671 40c0 9.155 4.089 17.698 11.22 23.44 7.12 5.733 16.322 7.905 25.245 5.956 50.9-11.109 102.536-10.482 153.476 1.861 4.397 1.066 8.876 1.783 13.383 2.163v3.721c-.001 12.407-10.094 22.501-22.501 22.501zm271-37.677c0 20.775-16.902 37.677-37.677 37.677h-173.323c-12.407 0-22.5-10.093-22.5-22.5v-3.721c4.507-.38 8.986-1.097 13.383-2.163 50.94-12.344 102.577-12.97 153.475-1.861 8.924 1.947 18.125-.223 25.245-5.956 7.13-5.742 11.22-14.286 11.22-23.44v-40-215.672c1.087.314 2.176.625 3.257.947 15.85 4.722 26.919 19.57 26.919 36.108v240.581z"/><path d="m94.326 370.781c.433 0 .871-.038 1.312-.116 38.948-6.873 78.446-6.872 117.395-.001 4.079.724 7.97-2.004 8.689-6.083.72-4.079-2.003-7.97-6.083-8.689-40.679-7.177-81.93-7.177-122.607.001-4.079.72-6.802 4.61-6.083 8.689.642 3.639 3.806 6.199 7.377 6.199z"/><path d="m94.326 328.983c.433 0 .871-.038 1.312-.116 38.948-6.872 78.446-6.872 117.395-.001 4.079.721 7.97-2.003 8.689-6.083.72-4.079-2.003-7.97-6.083-8.689-40.679-7.177-81.93-7.177-122.607.001-4.079.72-6.802 4.61-6.083 8.689.642 3.639 3.806 6.199 7.377 6.199z"/><path d="m418.968 355.894c-40.678-7.178-81.928-7.178-122.607-.001-4.079.719-6.802 4.61-6.083 8.689s4.611 6.807 8.689 6.083c38.948-6.872 78.445-6.872 117.395.001.441.078.879.116 1.312.116 3.571 0 6.735-2.56 7.377-6.198.72-4.08-2.004-7.97-6.083-8.69z"/><path d="m296.361 314.095c-4.079.719-6.802 4.61-6.083 8.689s4.611 6.804 8.689 6.083c38.948-6.872 78.445-6.872 117.395.001.441.078.879.116 1.312.116 3.571 0 6.735-2.56 7.377-6.198.72-4.079-2.003-7.969-6.083-8.689-40.678-7.179-81.928-7.179-122.607-.002z"/></g></g><g/><g/><g/><g/><g/><g/><g/><g/><g/><g/><g/><g/><g/><g/><g/></svg>