<svg id="Capa_1" enable-background="new 0 0 512 512" height="512" viewBox="0 0 512 512" width="512" xmlns="http://www.w3.org/2000/svg"><g><g><path d="m363.187 41.773c-4.756-16.116-18.428-28.022-35.044-30.518-44.139-6.614-91.606 5.303-130.699 34.419l64.719 76.727 84.892 53.561c23.474-42.716 28.756-91.37 16.132-134.189z" fill="#7de2ff"/><path d="m172.114 225.804-50.908-17.091s-111.221 38.992-77.594 164.65c129.087 16.041 152.426-99.483 152.426-99.483z" fill="#fce29f"/><path d="m92.614 303.575c0-36.05 15.532-68.472 40.269-90.941l-11.677-3.92s-111.221 38.992-77.594 164.65c26.854 3.337 49.117.968 67.56-4.858-11.757-18.839-18.558-41.089-18.558-64.931z" fill="#ffcd71"/><path d="m323.375 209.854-85.549 23.899 43.568 58.083c9.36 12.479 28.208 11.844 36.835-1.153 25.399-38.266 5.146-80.829 5.146-80.829z" fill="#7de2ff"/><path d="m87.772 89.991c34.413-30.416 79.355-16.204 79.355-16.204l-11.917 88.021-63.519-35.174c-13.646-7.557-15.608-26.313-3.919-36.643z" fill="#7de2ff"/><path d="m323.375 209.854-85.549 23.899 37.371 49.821c20.231-9.713 39.125-22.652 55.804-38.405-.462-20.256-7.626-35.315-7.626-35.315z" fill="#2ecffb"/><path d="m167.127 73.786s-15.901-5.027-36.028-2.701c-13.312 18.687-23.531 39.179-30.371 60.553l54.483 30.17z" fill="#2ecffb"/><path d="m197.443 45.674c-10.834 8.056-21.024 17.442-30.316 28.113-34.439 39.546-49.633 88.758-45.921 134.927l74.84 65.174c46.234-2.674 92.89-24.487 127.329-64.033 9.293-10.671 17.19-22.053 23.68-33.892z" fill="#ff8d9d"/><ellipse cx="215.435" cy="176.058" fill="#fce29f" rx="46.783" ry="46.783" transform="matrix(.891 -.455 .455 .891 -56.496 117.217)"/><path d="m23.9 419.291c-3.922-3.018-6.541-7.752-6.541-13.308v-9.237c0-17.758 11.093-33.615 27.772-39.711 41.848-15.294 123.576-33.922 193.1 17.573 10.551 7.815 24.988 7.815 35.539 0 69.523-51.495 151.252-32.867 193.1-17.573 16.679 6.096 27.772 21.953 27.772 39.711v9.237c0 5.556-2.62 10.29-6.542 13.308l-63.447 15.92h-94.788l-73.865 36.806-69.829-35.798h-124.032z" fill="#eeedff"/><g><path d="m90.325 383.836c0-14.543 3.273-28.32 9.114-40.643-21.334 3.088-40.116 8.655-54.308 13.842-16.679 6.096-27.772 21.953-27.772 39.711v9.237c0 5.556 2.62 10.291 6.542 13.308l38.24 16.928h43.928c-9.947-15.017-15.744-33.022-15.744-52.383z" fill="#d3d3ff"/></g><path d="m475.58 412.21c-44.913-16.415-133.942-36.517-207.702 23.442-6.932 5.635-16.824 5.635-23.756 0-73.76-59.959-162.789-39.857-207.702-23.442-17.368 6.348-28.92 22.86-28.92 41.352v9.619c0 12.324 12.375 20.764 23.869 16.32 41.956-16.222 131.642-39.592 207.166 17.174 10.375 7.798 24.556 7.798 34.93 0 75.524-56.766 165.21-33.396 207.166-17.174 11.494 4.444 23.869-3.996 23.869-16.32v-9.619c0-18.492-11.552-35.004-28.92-41.352z" fill="#ff8d9d"/><g fill="#eeedff"><path d="m75.593 38.799c-11.042-2.331-19.182-10.313-21.522-21.626-.817-3.948-4.317-6.765-8.454-6.765h-.543c-4.051 0-7.423 2.912-8.259 6.876-2.328 11.047-10.312 19.191-21.628 21.532-3.948.817-6.765 4.317-6.765 8.438v.455c0 4.046 2.841 7.533 6.802 8.357 11.294 2.35 19.261 10.484 21.59 21.515.838 3.967 4.206 6.885 8.366 6.885h.542c4.032 0 7.532-2.817 8.349-6.765 2.34-11.314 10.48-19.296 21.522-21.627 3.967-.838 6.885-4.207 6.885-8.262v-.75c.001-4.056-2.917-7.425-6.885-8.263z"/><path d="m432.756 230.902c-11.042-2.331-19.182-10.313-21.522-21.626-.817-3.948-4.317-6.765-8.454-6.765h-.543c-4.051 0-7.423 2.912-8.259 6.876-2.328 11.047-10.312 19.191-21.628 21.532-3.948.817-6.765 4.317-6.765 8.438v.455c0 4.046 2.841 7.533 6.802 8.357 11.294 2.35 19.261 10.484 21.59 21.515.838 3.967 4.206 6.885 8.366 6.885h.542c4.032 0 7.532-2.817 8.349-6.765 2.34-11.314 10.48-19.296 21.522-21.627 3.967-.838 6.885-4.207 6.885-8.262v-.75c0-4.056-2.918-7.425-6.885-8.263z"/><circle cx="455.232" cy="64.669" r="46.529"/></g><path d="m387.065 222.843c-3.767 4.006-8.776 6.846-14.715 8.074-3.948.817-6.765 4.317-6.765 8.438v.455c0 4.045 2.841 7.533 6.802 8.357 11.294 2.35 19.261 10.484 21.59 21.515.838 3.967 4.206 6.885 8.366 6.885h.542c4.032 0 7.532-2.817 8.349-6.765.723-3.499 2.004-6.676 3.751-9.468-15.647-5.583-27.027-20.148-27.92-37.491z" fill="#d3d3ff"/><path d="m29.903 30.741c-3.767 4.006-8.776 6.846-14.715 8.074-3.948.817-6.765 4.317-6.765 8.438v.455c0 4.045 2.841 7.533 6.802 8.357 11.294 2.35 19.261 10.484 21.59 21.515.838 3.967 4.206 6.885 8.366 6.885h.542c4.032 0 7.532-2.817 8.349-6.765.723-3.499 2.004-6.676 3.751-9.468-15.647-5.583-27.028-20.148-27.92-37.491z" fill="#d3d3ff"/><path d="m439.641 36.384c0-5.644.787-11.102 2.229-16.286-19.183 5.743-33.167 23.521-33.167 44.572 0 25.697 20.832 46.529 46.529 46.529 13.587 0 25.811-5.826 34.318-15.114-28.371-5.083-49.909-29.868-49.909-59.701z" fill="#d3d3ff"/><g><path d="m91.382 398.032c-21.558 3.258-40.538 8.906-54.962 14.178-17.368 6.347-28.92 22.86-28.92 41.352v9.619c0 12.323 12.375 20.764 23.869 16.32 22.308-8.625 58.109-19.271 98.1-18.817-20.098-14.636-34.238-36.959-38.087-62.652z" fill="#e95b70"/></g></g><g><path d="m179.786 216.959c22.601 19.682 56.88 17.34 76.585-5.287 19.702-22.623 17.341-56.88-5.287-76.585-22.572-19.657-56.928-17.286-76.585 5.287-19.702 22.623-17.34 56.88 5.287 76.585zm6.025-66.734c14.244-16.357 39.109-18.032 55.422-3.826 16.372 14.259 18.085 39.049 3.826 55.422-14.259 16.374-39.047 18.086-55.422 3.826-16.372-14.258-18.086-39.047-3.826-55.422z"/><path d="m258.639 56.61c3.117 2.714 7.855 2.4 10.582-.73l5.785-6.643c2.72-3.124 2.393-7.861-.73-10.582-3.124-2.72-7.861-2.393-10.582.73l-5.785 6.643c-2.721 3.124-2.393 7.861.73 10.582z"/><path d="m327.779 116.82c3.125 2.72 7.861 2.393 10.582-.73l5.785-6.643c2.72-3.124 2.393-7.861-.73-10.582-3.124-2.72-7.861-2.393-10.582.731l-5.785 6.643c-2.721 3.123-2.394 7.86.73 10.581z"/><path d="m289.766 90.669c5.129 4.467 11.935 6.49 18.683 5.559 4.103-.568 6.969-4.354 6.401-8.457s-4.355-6.968-8.457-6.402c-2.449.34-4.919-.394-6.777-2.012-1.857-1.617-2.923-3.963-2.924-6.436-.001-4.141-3.358-7.497-7.5-7.497 0 0-.001 0-.002 0-4.143.001-7.499 3.36-7.498 7.502.003 6.811 2.946 13.277 8.074 17.743z"/><path d="m13.695 63.373c8.283 1.724 14.034 7.454 15.78 15.721 1.596 7.558 8.054 12.836 15.705 12.836h.542c7.565 0 14.166-5.36 15.693-12.746 1.717-8.298 7.449-14.06 15.727-15.808 7.558-1.596 12.836-8.01 12.836-15.6v-.75c0-7.59-5.278-14.005-12.836-15.6-8.278-1.748-14.01-7.509-15.727-15.807-1.527-7.385-8.171-12.746-15.798-12.746h-.543c-7.591 0-14.005 5.275-15.598 12.829-1.746 8.282-7.508 14.017-15.809 15.734-7.385 1.528-12.745 8.165-12.745 15.782v.455c0 7.557 5.372 14.159 12.773 15.7zm2.227-16.155c0-.557.315-.996.784-1.093 14.199-2.937 24.46-13.154 27.448-27.329.094-.444.422-.923.92-.923h.543c.566 0 1.012.315 1.109.784 2.936 14.194 13.148 24.454 27.317 27.445.45.095.935.425.935.924v.75c0 .499-.484.828-.935.923-14.17 2.992-24.382 13.252-27.317 27.446-.094.454-.517.784-1.005.784h-.541c-.771 0-.982-.715-1.028-.935-2.987-14.151-13.23-24.359-27.4-27.308-.48-.1-.829-.526-.829-1.014v-.454z"/><path d="m386.639 207.805c-1.745 8.282-7.507 14.017-15.809 15.734-7.385 1.528-12.746 8.165-12.746 15.786v.451c0 7.557 5.372 14.16 12.774 15.7 8.282 1.724 14.034 7.454 15.779 15.721 1.596 7.558 8.054 12.836 15.706 12.836h.541c7.566 0 14.167-5.36 15.693-12.745 1.716-8.299 7.449-14.061 15.727-15.808 7.558-1.595 12.836-8.01 12.836-15.6v-.75c0-7.59-5.279-14.004-12.836-15.6-8.278-1.748-14.01-7.509-15.727-15.807-1.528-7.386-8.172-12.746-15.799-12.746h-.542c-7.59-.001-14.005 5.274-15.597 12.828zm14.677 3.094c.094-.444.422-.923.92-.923h.542c.566 0 1.013.315 1.109.784 2.937 14.194 13.148 24.454 27.317 27.446.45.095.935.424.935.923v.75c0 .499-.484.829-.935.924-14.169 2.991-24.382 13.251-27.318 27.446-.094.454-.517.783-1.006.783h-.54c-.771 0-.982-.715-1.028-.935-2.988-14.151-13.231-24.359-27.4-27.308-.481-.1-.83-.526-.83-1.018v-.45c0-.557.315-.997.784-1.094 14.202-2.936 24.463-13.153 27.45-27.328z"/><path d="m455.232 118.664c29.791 0 54.028-24.237 54.028-54.029s-24.237-54.029-54.028-54.029c-29.792 0-54.029 24.237-54.029 54.029s24.237 54.029 54.029 54.029zm0-93.058c21.521 0 39.028 17.509 39.028 39.029s-17.508 39.029-39.028 39.029c-21.521 0-39.029-17.508-39.029-39.029s17.508-39.029 39.029-39.029z"/><path d="m34.073 486.461c20.497-7.925 52.48-17.53 88.446-18.281 42.396-.882 79.915 10.708 111.509 34.455 13.166 9.896 30.826 9.859 43.943 0 31.594-23.747 69.112-35.339 111.508-34.455 35.966.75 67.949 10.355 88.446 18.281 16.377 6.332 34.074-5.716 34.074-23.315v-9.619c0-13.098-5.032-25.414-13.519-34.725 2.369-3.794 3.661-8.213 3.661-12.854v-9.237c0-20.818-13.141-39.607-32.698-46.756-20.656-7.549-52.815-16.577-88.717-16.715-42.075-.152-79.574 11.717-111.421 35.305-7.958 5.895-18.653 5.895-26.611 0-21.246-15.736-45.007-26.253-70.963-31.468 18.921-21.932 27.252-45.595 30.247-56.152 17.901-1.602 35.536-5.944 52.333-12.731l21.083 28.107c12.593 16.791 37.71 15.631 49.083-1.506 22.697-34.196 12.332-70.89 7.568-83.608 8.228-9.897 15.479-20.52 21.58-31.646 0-.001.001-.001.001-.002.001-.001.001-.003.002-.004 0 0 .001-.001.001-.002v-.001c23.989-43.656 30.094-94.652 16.75-139.915 0 0 0-.001 0-.002-5.559-18.837-21.701-32.895-41.126-35.813-46.659-6.991-96.332 6.063-136.284 35.816h-.001c-.001.001-.002.002-.003.002 0 0-.001.001-.002.001 0 0 0 0-.001.001-10.182 7.575-19.709 16.218-28.382 25.728-13.253-2.971-51.023-8.195-81.776 18.986-7.338 6.486-11.084 16.158-10.021 25.873 1.073 9.805 6.641 18.171 15.274 22.951l30.74 17.022c-4.415 17.572-6.291 35.638-5.415 53.59-6.836 3.02-19.38 9.337-32.746 19.941-3.245 2.574-3.789 7.292-1.214 10.537 2.574 3.245 7.292 3.789 10.537 1.214 12.304-9.761 23.947-15.528 29.799-18.1l67.869 59.104c-2.847 9.999-11.973 36.302-33.853 57.883-36.112-3.762-73.56 2.361-107.539 14.288-4.98-36.296 2.928-67.634 23.56-93.265 2.597-3.227 2.087-7.948-1.14-10.545-3.226-2.597-7.947-2.087-10.545 1.14-24.224 30.095-32.966 66.851-26.035 109.311-13.625 9.1-22.216 24.602-22.216 41.432v9.237c0 4.641 1.291 9.06 3.66 12.854-8.488 9.311-13.519 21.626-13.519 34.724v9.619c0 17.557 17.658 29.661 34.073 23.315zm277.907-199.96c-5.78 8.707-18.337 9.131-24.586.8l-19.03-25.37c19.262-9.606 36.697-22.294 52.036-37.867 3.762 14.032 6.976 39.24-8.42 62.437zm15.048-267.864c13.68 2.055 25.049 11.956 28.965 25.224v-.002c11.388 38.626 7.256 81.91-11.219 120.137l-135.198-117.736c35.332-23.549 77.636-33.588 117.452-27.623zm-129.879 36.692c6.988 6.085 133.28 116.066 140.348 122.221-29.395 49.618-81.533 84.208-138.863 88.612l-70.167-61.104c-3.48-56.669 22.973-113.314 68.682-149.729zm-109.455 53.247c-.542-4.95 1.296-9.688 5.044-13.001 16.034-14.171 34.888-17.575 49.301-17.575 4.229 0 8.077.293 11.357.693-13.303 17.325-23.465 36.324-30.327 56.708l-27.745-15.364c-4.313-2.387-7.094-6.565-7.63-11.461zm-72.694 354.57v-9.619c0-15.236 9.628-29.061 23.994-34.307 103.878-37.965 170.143-2.376 200.397 22.217 9.624 7.823 23.593 7.823 33.217 0 36.126-29.366 80.124-42.124 130.764-37.917 4.129.344 7.752-2.726 8.095-6.854.021-.258.029-.514.025-.768-.07-3.817-3.024-7.007-6.878-7.328-51.745-4.295-100.206 7.686-141.467 41.226-4.192 3.408-10.069 3.433-14.294 0-36.079-29.328-78.076-42.244-122.923-42.053-37.168.174-70.44 9.476-92.084 17.387-2.972 1.087-6.142 2.632-8.454 3.993-.891-2.493-.382-4.011-.534-12.413 0-13.436 7.845-25.648 19.813-31.372 1.843-.88 3.055-1.303 3.034-1.295 63.579-23.245 132.038-23.459 186.061 16.555 13.299 9.85 31.168 9.85 44.467 0 66.509-49.262 145.121-31.518 186.061-16.556 13.666 4.995 22.848 18.123 22.848 32.667-.151 8.358.359 9.914-.534 12.413-2.278-1.341-5.407-2.88-8.453-3.993-20.143-7.362-41.692-12.263-44.176-12.263-3.489.003-6.611 2.453-7.335 6.004-.827 4.059 1.793 8.02 5.852 8.847 13.559 2.762 27.188 6.632 40.51 11.501 14.303 5.23 23.994 19 23.994 34.309v9.619c0 7.028-7.043 11.885-13.665 9.324-21.619-8.358-55.397-18.49-93.542-19.286-45.836-.959-86.49 11.646-120.833 37.461-7.751 5.826-18.167 5.826-25.918 0-34.344-25.814-75.006-38.42-120.834-37.461-38.146.796-71.924 10.928-93.543 19.286-6.564 2.538-13.665-2.235-13.665-9.324z"/></g></g></svg>