<?xml version="1.0" encoding="UTF-8" standalone="no"?>
<!-- Created with Inkscape (http://www.inkscape.org/) -->

<svg
   version="1.1"
   id="svg4188"
   width="682.66669"
   height="682.66669"
   viewBox="0 0 682.66669 682.66669"
   xmlns="http://www.w3.org/2000/svg"
   xmlns:svg="http://www.w3.org/2000/svg">
  <defs
     id="defs4192">
    <clipPath
       clipPathUnits="userSpaceOnUse"
       id="clipPath4202">
      <path
         d="M 0,512 H 512 V 0 H 0 Z"
         id="path4200" />
    </clipPath>
  </defs>
  <g
     id="g4194"
     transform="matrix(1.3333333,0,0,-1.3333333,0,682.66667)">
    <g
       id="g4196">
      <g
         id="g4198"
         clip-path="url(#clipPath4202)">
        <g
           id="g4204"
           transform="translate(395.4155,295.9346)">
          <path
             d="m 0,0 -39.473,-16.589 c -29.735,89.204 -63.893,151.869 -79.444,178.123 -3.403,5.746 -11.903,5.03 -14.324,-1.194 l -50.15,-128.957 -34.181,27.345 c -3.316,2.653 -8.095,2.292 -10.925,-0.875 -9.054,-10.128 -28.501,-33.668 -45.299,-66.054 l -29.48,-108.023 c -1.915,-90.518 69.679,-167.979 160.127,-172.037 96.247,-4.318 175.635,72.436 175.635,167.731 z"
             style="fill:#ffe077;fill-opacity:1;fill-rule:nonzero;stroke:none"
             id="path4206" />
        </g>
        <g
           id="g4208"
           transform="translate(400.4917,308.0674)">
          <path
             d="m 0,0 c -2.075,5.397 -9.01,6.816 -13.098,2.728 l -31.451,-31.451 c -29.735,89.205 -63.893,151.87 -79.445,178.124 -3.402,5.747 -11.902,5.031 -14.322,-1.193 L -188.467,19.25 -222.648,46.595 c -3.317,2.654 -8.094,2.292 -10.926,-0.875 -17.045,-19.069 -70.808,-85.722 -74.5,-169.408 l 23.756,-0.394 0.648,7.417 c 5.301,60.443 39.36,111.008 58.225,134.783 L -203.45,0.526 c 6.035,-4.825 13.781,-6.433 21.206,-4.443 7.457,2.007 13.337,7.278 16.132,14.477 l 37.814,97.23 c 15.983,-30.436 39.829,-80.583 60.997,-144.102 2.647,-7.948 9.096,-13.836 17.248,-15.756 8.128,-1.913 16.537,0.46 22.463,6.386 l 13.454,13.454 c 7.347,-23.088 15.046,-53.751 17.068,-85.342 0.816,-12.875 11.458,-22.958 24.271,-23.069 0.123,2.645 0.207,5.301 0.207,7.976 C 27.41,-77.828 8.839,-22.992 0,0"
             style="fill:#ffd05b;fill-opacity:1;fill-rule:nonzero;stroke:none"
             id="path4210" />
        </g>
        <g
           id="g4212"
           transform="translate(277.6816,228.3384)">
          <path
             d="m 0,0 -25.679,-44.938 -17.85,11.899 c -3.497,2.331 -8.21,1.574 -10.763,-1.765 -10.524,-13.761 -35.351,-48.895 -35.351,-74.098 0,-39.742 32.217,-71.959 71.959,-71.959 39.742,0 71.959,32.217 71.959,71.959 0,42.183 -27.252,88.908 -40.676,109.366 C 10.333,5.442 2.954,5.17 0,0"
             style="fill:#ffffff;fill-opacity:1;fill-rule:nonzero;stroke:none"
             id="path4214" />
        </g>
        <g
           id="g4216"
           transform="translate(171.6606,195.8633)">
          <path
             d="M 0,0 C 2.803,20.343 -9.844,40.561 -30.167,43.504 -46.475,45.866 -60.883,37.234 -67.574,24.03 -74.265,37.234 -88.673,45.866 -104.98,43.504 -125.304,40.561 -137.951,20.343 -135.148,0 c 5.282,-38.333 47.856,-67.122 64.677,-75.046 1.862,-0.877 3.932,-0.877 5.794,0 C -47.856,-67.122 -5.282,-38.333 0,0"
             style="fill:#ff5f7a;fill-opacity:1;fill-rule:nonzero;stroke:none"
             id="path4218" />
        </g>
        <g
           id="g4220"
           transform="translate(475.667,358.7466)">
          <path
             d="m 0,0 c 1.689,14.794 -7.064,29.074 -21.669,31.975 -13.094,2.6 -24.81,-4.122 -30.135,-14.63 -5.324,10.508 -17.041,17.23 -30.134,14.63 -14.605,-2.901 -23.358,-17.181 -21.67,-31.975 3.32,-29.08 34.93,-51.157 48.572,-57.927 2.058,-1.022 4.407,-1.022 6.464,0 C -34.93,-51.157 -3.319,-29.08 0,0"
             style="fill:#ff7e92;fill-opacity:1;fill-rule:nonzero;stroke:none"
             id="path4222" />
        </g>
        <g
           id="g4224"
           transform="translate(227.9258,478.1997)">
          <path
             d="M 0,0 C 1.007,12.229 -6.488,23.521 -18.535,25.852 -29.54,27.98 -39.375,22.314 -43.854,13.476 -48.333,22.314 -58.167,27.98 -69.172,25.852 -81.219,23.521 -88.714,12.229 -87.707,0 c 2.001,-24.295 27.637,-42.994 39.91,-49.456 2.471,-1.301 5.415,-1.301 7.887,0 C -27.638,-42.994 -2.001,-24.295 0,0"
             style="fill:#ff9ba6;fill-opacity:1;fill-rule:nonzero;stroke:none"
             id="path4226" />
        </g>
        <g
           id="g4228"
           transform="translate(122.1465,134.7944)">
          <path
             d="m 0,0 c -15.21,6.793 -58.49,36.472 -63.386,71.975 -1.28,9.33 1.469,18.926 7.364,25.672 l 6.376,7.297 c -1.906,0.025 -3.848,-0.085 -5.82,-0.371 -20.325,-2.943 -32.971,-23.161 -30.168,-43.504 5.282,-38.333 47.857,-67.122 64.677,-75.046 1.862,-0.877 3.933,-0.877 5.794,0 4.889,2.303 11.974,6.416 19.666,11.967 z"
             style="fill:#fb4455;fill-opacity:1;fill-rule:nonzero;stroke:none"
             id="path4230" />
        </g>
        <g
           id="g4232"
           transform="translate(199.5947,439.6831)">
          <path
             d="m 0,0 c -9.354,4.47 -36.464,22.425 -38.361,45.455 -0.461,5.594 1.577,11.22 5.45,15.057 l 3.328,3.301 c -3.472,1.047 -7.283,1.325 -11.259,0.556 -12.046,-2.33 -19.542,-13.624 -18.534,-25.852 2.001,-24.295 27.637,-42.995 39.911,-49.456 2.471,-1.302 5.414,-1.302 7.885,0 3.872,2.039 9.076,5.3 14.446,9.566 z"
             style="fill:#ff7e92;fill-opacity:1;fill-rule:nonzero;stroke:none"
             id="path4234" />
        </g>
        <g
           id="g4236"
           transform="translate(440.4731,313.5518)">
          <path
             d="m 0,0 c -13.313,6.941 -41.719,29.296 -44.545,54.063 -0.75,6.586 1.421,13.25 5.809,17.834 l 4.517,4.867 c -3.902,1.025 -8.12,1.28 -12.525,0.405 -14.605,-2.9 -23.359,-17.18 -21.671,-31.974 3.321,-29.079 34.931,-51.157 48.573,-57.927 2.058,-1.021 4.406,-1.021 6.465,0 4.339,2.153 10.498,5.867 16.984,10.851 z"
             style="fill:#ff5f7a;fill-opacity:1;fill-rule:nonzero;stroke:none"
             id="path4238" />
        </g>
        <g
           id="g4240"
           transform="translate(371.1616,295.0083)">
          <path
             d="m 0,0 -14.96,-14.96 c -40.081,120.242 -88.177,192.387 -88.177,192.387 l -56.113,-144.29 -40.081,32.064 c 0,0 -37.108,-37.108 -60.83,-93.652"
             style="fill:none;stroke:#000000;stroke-width:15;stroke-linecap:round;stroke-linejoin:round;stroke-miterlimit:10;stroke-dasharray:none;stroke-opacity:1"
             id="path4242" />
        </g>
        <g
           id="g4244"
           transform="translate(116.5845,87.6597)">
          <path
             d="m 0,0 c 29.634,-48.097 82.784,-80.16 143.424,-80.16 92.971,0 168.338,75.368 168.338,168.339 0,33.664 -6.981,67.329 -14.429,93.663"
             style="fill:none;stroke:#000000;stroke-width:15;stroke-linecap:round;stroke-linejoin:round;stroke-miterlimit:10;stroke-dasharray:none;stroke-opacity:1"
             id="path4246" />
        </g>
        <g
           id="g4248"
           transform="translate(171.8306,203.895)">
          <path
             d="m 0,0 c 0,19.922 -16.15,36.073 -36.072,36.073 -14.064,0 -26.115,-8.129 -32.065,-19.87 -5.95,11.741 -18.001,19.87 -32.065,19.87 -19.922,0 -36.072,-16.151 -36.072,-36.073 0,-44.76 53.128,-78.277 68.137,-84.169 C -53.128,-78.277 0,-44.76 0,0 Z"
             style="fill:none;stroke:#000000;stroke-width:15;stroke-linecap:round;stroke-linejoin:round;stroke-miterlimit:10;stroke-dasharray:none;stroke-opacity:1"
             id="path4250" />
        </g>
        <g
           id="g4252"
           transform="translate(476.4434,364.6895)">
          <path
             d="m 0,0 c 0,15.234 -12.35,27.585 -27.585,27.585 -10.754,0 -19.97,-6.216 -24.519,-15.195 -4.551,8.979 -13.766,15.195 -24.521,15.195 -15.234,0 -27.584,-12.351 -27.584,-27.585 0,-34.229 40.627,-59.859 52.105,-64.365 C -40.627,-59.859 0,-34.229 0,0 Z"
             style="fill:none;stroke:#000000;stroke-width:15;stroke-linecap:round;stroke-linejoin:round;stroke-miterlimit:10;stroke-dasharray:none;stroke-opacity:1"
             id="path4254" />
        </g>
        <g
           id="g4256"
           transform="translate(227.9434,481.1587)">
          <path
             d="m 0,0 c 0,12.891 -10.45,23.341 -23.341,23.341 -9.1,0 -16.898,-5.259 -20.747,-12.857 -3.85,7.598 -11.648,12.857 -20.748,12.857 -12.891,0 -23.341,-10.45 -23.341,-23.341 0,-28.962 34.377,-50.65 44.089,-54.462 C -34.377,-50.65 0,-28.962 0,0 Z"
             style="fill:none;stroke:#000000;stroke-width:15;stroke-linecap:round;stroke-linejoin:round;stroke-miterlimit:10;stroke-dasharray:none;stroke-opacity:1"
             id="path4258" />
        </g>
        <g
           id="g4260"
           transform="translate(322.0488,173.3882)">
          <path
             d="m 0,0 c 4.911,-14.892 10.104,-36.782 10.104,-53.663 0,-39.844 -32.3,-72.145 -72.145,-72.145 -39.844,0 -72.145,32.301 -72.145,72.145 0,32.065 40.081,80.162 40.081,80.162 l 24.048,-16.032 32.065,56.113 c 0,0 12.024,-14.029 24.048,-36.073"
             style="fill:none;stroke:#000000;stroke-width:15;stroke-linecap:round;stroke-linejoin:round;stroke-miterlimit:10;stroke-dasharray:none;stroke-opacity:1"
             id="path4262" />
        </g>
      </g>
    </g>
  </g>
</svg>
